<!DOCTYPE svg PUBLIC "-//W3C//DTD SVG 1.1//EN" "http://www.w3.org/Graphics/SVG/1.1/DTD/svg11.dtd">
<!-- Uploaded to: SVG Repo, www.svgrepo.com, Transformed by: SVG Repo Mixer Tools -->
<svg fill="#c2c1c1" version="1.1" id="Capa_1" xmlns="http://www.w3.org/2000/svg" xmlns:xlink="http://www.w3.org/1999/xlink" width="250px" height="250px" viewBox="-10.71 -10.71 128.53 128.53" xml:space="preserve" stroke="#c2c1c1" transform="rotate(0)">
<g id="SVGRepo_bgCarrier" stroke-width="0"/>
<g id="SVGRepo_tracerCarrier" stroke-linecap="round" stroke-linejoin="round" stroke="#eae31f" stroke-width="2.784912"> <g> <path d="M44.691,10.521c0.098-0.101,0.211-0.195,0.343-0.278C44.859,10.317,44.754,10.412,44.691,10.521z"/> <g> <path d="M34.336,56.791c-0.099,0.088-0.202,0.139-0.304,0.169c0.033-0.002,0.063,0.001,0.099-0.004 c0.387-0.052,0.625,0.162,0.756,0.521c0.122,0.332,0.175,0.697,0.434,0.967c-0.097-0.689,0.269-1.161,0.911-1.223 c-0.281-0.067-0.538-0.276-0.776-0.424C35.046,56.541,34.741,56.438,34.336,56.791z"/> <path d="M31.745,54.545c0.009,0.053,0.035,0.102,0.058,0.15c0.011-0.135-0.002-0.279-0.057-0.441 C31.745,54.352,31.728,54.443,31.745,54.545z"/> <path d="M34.033,56.96c-0.143,0.007-0.264-0.022-0.369-0.091C33.776,56.982,33.903,56.998,34.033,56.96z"/> <path d="M25.084,63.485c-0.031-0.087-0.044-0.179-0.068-0.267c-0.024-0.029-0.053-0.05-0.064-0.1 c-0.262-1.162-0.597-2.309-0.728-3.495c-0.026-0.231-0.084-0.452-0.213-0.651c-0.326-0.498-0.583-0.506-0.878,0.014 c-0.222,0.389-0.447,0.463-0.778,0.137c-0.14-0.139-0.385-0.261-0.511-0.143c-0.322,0.307-0.702,0.25-1.068,0.269 c0.113,0.399,0.147,0.813,0.084,1.216c-0.095,0.602,0.13,1.119,0.332,1.646c0.168,0.437,0.535,0.558,0.979,0.503 c0.198-0.023,0.454-0.201,0.536,0.152c0.269-0.459,0.647-0.312,0.952-0.104c0.38,0.262,0.737,0.545,1.162,0.743 c0.213,0.099,0.397,0.28,0.416,0.56c0.006,0.09,0.026,0.153,0.054,0.204c0.002-0.009,0.004-0.017,0.007-0.024 c-0.027-0.062-0.047-0.135-0.057-0.232C25.227,63.766,25.154,63.619,25.084,63.485z"/> <path d="M47.26,66.461c0.009-0.025,0.021-0.047,0.03-0.072c-0.011,0.025-0.026,0.047-0.039,0.071 C47.255,66.46,47.257,66.461,47.26,66.461z"/> <path d="M32.838,53.062c0.375-0.021,0.5-0.122,0.502-0.458c0.173-0.408,0.426-0.784,0.483-1.237 c0.395-0.186,0.786-0.357,1.016-0.783c0.053-0.099,0.145-0.153,0.241-0.192c-0.103,0.026-0.212,0.049-0.327,0.055 c-0.334,0.017-0.476-0.277-0.669-0.464c-0.167-0.161-0.367-0.227-0.564-0.245c-0.25-0.022-0.395-0.141-0.45-0.353 c-0.061-0.227,0.051-0.393,0.257-0.519c0.248-0.151,0.542-0.33,0.451-0.667c-0.043-0.16-0.244-0.277-0.121-0.487 c-0.061,0.292-0.255,0.349-0.522,0.321c-0.188-0.02-0.288-0.158-0.425-0.25c-0.46-0.312-1.131-0.212-1.48,0.213 c-0.721,0.877-1.332,1.074-2.397,0.738c-0.348-0.109-0.698-0.15-1.055-0.137c0.017,0.034,0.039,0.065,0.041,0.11 c0.01,0.052,0.001,0.087,0.004,0.132c0.536,0.208,0.367,0.843,0.612,1.287c0.439-0.419,0.853-0.373,1.277,0.048 c0.153,0.151,0.415,0.192,0.626,0.285c0.189,0.084,0.436,0.14,0.427,0.399c-0.008,0.214-0.226,0.298-0.397,0.363 c-0.239,0.09-0.427-0.044-0.51-0.252c-0.131-0.324-0.3-0.507-0.662-0.33c-0.072,0.035-0.182,0.088-0.188,0.143 c-0.021,0.19,0.118,0.46-0.229,0.466c-0.328,0.006-0.694,0.131-0.97-0.134c-0.319-0.306-0.756-0.31-1.201-0.606 c0.086,0.213,0.126,0.305,0.16,0.399c0.082,0.225,0.591,0.378,0.152,0.689c-0.357,0.253-0.889,0.087-1.089-0.295 c-0.019-0.037-0.037-0.077-0.046-0.117c-0.082-0.36-0.043-0.893-0.478-0.931c-0.162-0.014-0.294,0.048-0.417,0.134 c-0.02,0.096-0.024,0.209-0.015,0.339c0.009,0.127-0.111,0.221-0.155,0.338c-0.106,0.29-0.037,0.487,0.282,0.574 c0.263,0.072,0.518,0.171,0.772,0.266c0.435,0.161,0.487,0.487,0.136,0.802c-0.153,0.138-0.333,0.246-0.44,0.446 c0.798,0.003,0.802,0.003,0.848,0.846c0.019,0.35,0.225,0.527,0.521,0.635c0.284,0.104,0.554,0.235,0.816,0.383 c-0.026-0.608,0.208-0.696,1.002-0.631c0.841,0.07,1.73,0.236,2.43-0.49c0.126-0.131,0.309-0.252,0.51-0.172 c0.245,0.096,0.082,0.334,0.142,0.494c0.005,0.014,0.003,0.023,0.007,0.037C31.753,53.605,32.146,53.1,32.838,53.062z"/> <path d="M35.08,50.392c0.131-0.033,0.25-0.072,0.339-0.105C35.335,50.32,35.203,50.342,35.08,50.392z"/> <path d="M31.778,54.98c0.092-0.115,0.064-0.201,0.025-0.284c-0.026,0.31-0.205,0.555-0.54,0.75 c-0.121,0.071-0.194,0.218-0.244,0.387c0.264-0.106,0.466-0.164,0.55,0.022C31.559,55.547,31.567,55.243,31.778,54.98z"/> <path d="M18.561,23.822c-0.052,0.024-0.103,0.051-0.147,0.09v0.001h0.001C18.458,23.873,18.509,23.847,18.561,23.822z"/> <path d="M47.337,58.283c-0.004-0.021-0.006-0.044-0.008-0.064c-0.001,0.004-0.003,0.004-0.004,0.01 C47.322,58.264,47.32,58.278,47.337,58.283z"/> <path d="M47.35,58.287c-0.009,0.001-0.008-0.004-0.013-0.005c0.003,0.017,0.001,0.036,0.006,0.052 C47.331,58.379,47.434,58.282,47.35,58.287z"/> <path d="M22.715,62.781c-0.001-0.008-0.006-0.008-0.007-0.016h-0.001C22.713,62.768,22.715,62.783,22.715,62.781z"/> <path d="M44.492,34.422c0.036-0.052,0.067-0.099,0.058-0.11c-0.547-0.65,0.271-1.668-0.609-2.23 c-0.291-0.185-0.157-0.292,0.093-0.423c0.221-0.116,0.748-0.007,0.63-0.31c-0.158-0.404-0.104-0.976-0.58-1.207 c-0.382-0.184-0.795-0.634-1.184,0.103c-0.115,0.217-0.689,0.101-0.872,0.487c-0.06,0.575-0.422,0.974-0.767,1.382 c0.012,0.02,0.027,0.032,0.037,0.054c0.091,0.302-0.043,0.582-0.107,0.86c-0.076,0.329-0.325,0.471-0.669,0.428 c-0.674-0.083-0.948,0.227-0.78,0.896c0.044,0.179,0.163,0.345-0.001,0.518c0.315,0.12,0.605,0.136,0.771-0.35 c0.185-0.141,0.392-0.21,0.625-0.193c0.579,0.273,0.053,0.522-0.017,0.781c-0.035,0.014-0.069,0.027-0.104,0.041 c-0.245,0.068-0.392,0.19-0.491,0.339c0.074,0.281,0.058,0.583,0.051,0.881c0-0.002,0.001-0.003,0.002-0.005 c0.11-0.535,0.532-0.813,1.062-0.742c0.41,0.055,0.658,0.498,0.603,1.058c-0.034,0.346-0.001,0.707-0.369,0.987 c0.472,0.043,0.366-0.302,0.365-0.438c-0.006-0.451,0.079-0.859,0.356-1.212c0.14-0.178,0.128-0.325,0.028-0.515 c-0.231-0.441-0.146-0.854,0.298-0.992C43.425,34.354,43.967,34.084,44.492,34.422z"/> <path d="M46.287,73.874c-0.051-0.021-0.104-0.034-0.154-0.051c-0.044,0.006-0.085,0.021-0.129,0.024 c-0.146,0.024-0.281,0.072-0.405,0.152c0.004,0.041,0.014,0.08,0.016,0.123c0.007,0.203,0.11,0.367,0.298,0.443 c0.276,0.109,0.619,0.369,0.821-0.025C46.926,74.165,46.597,73.988,46.287,73.874z"/> <path d="M36.714,57.172c-0.05,0.024-0.1,0.039-0.149,0.051c0.02,0.002,0.037,0,0.057,0.004c0.328,0.045,0.697,0.119,0.939,0.324 c0.327,0.277,0.638,0.323,0.984,0.203c-0.091-0.052-0.183-0.107-0.25-0.183C37.857,57.08,37.389,56.842,36.714,57.172z"/> <path d="M38.545,57.754c0.007,0.004,0.013,0.01,0.02,0.014c0.025,0.013,0.037,0.015,0.041-0.002 c0.001-0.004,0.002-0.002,0.003-0.006c-0.01,0-0.021,0-0.042-0.013C38.559,57.75,38.552,57.75,38.545,57.754z"/> <path d="M44.375,62.244c-0.05-0.268-0.104-0.529-0.208-0.831c-0.143,0.578-1.08,0.785-0.809,1.364 c0.21,0.447,0.063,1.104,0.604,1.395c0.105-0.328,0.448-0.475,0.679-0.617c0.229-0.145,0.542,0.319,0.911,0.349 c0.203,0.016,0.107,0.267,0.082,0.428c-0.033,0.204-0.05,0.412-0.074,0.618c0.26,0.354,0.667,0.385,1.039,0.49 c0.172-0.082,0.325-0.199,0.527-0.086c0.343,0.262,0.272,0.606,0.196,0.953c-0.011,0.028-0.021,0.055-0.032,0.082 c0.009-0.021,0.021-0.037,0.029-0.059c0.186-0.168,0.32-0.012,0.469,0.062c0.203-0.517,0.318-1.065,0.55-1.571 c-0.366-0.298-0.595-0.71-0.839-1.095c-0.288-0.451-0.683-0.603-1.162-0.621c-0.518-0.018-0.956-0.178-1.291-0.559 C44.656,62.821,44.452,62.656,44.375,62.244z"/> <path d="M55.195,30.406c-0.105,0.056-0.281,0.173-0.426,0.082c-0.002,0.002-0.006,0.004-0.008,0.007 c-0.039,0.019-0.08,0.024-0.119,0.031c-0.025,0.345-0.021,0.67,0.463,0.801c0.143,0.038,0.371,0.209,0.424,0.133 c0.254-0.366,0.736-0.207,1.008-0.486c0.092-0.095,0.061-0.214-0.055-0.252C56.064,30.583,55.734,30.128,55.195,30.406z"/> <path d="M51.724,33.743c-0.244-0.061-0.448-0.162-0.604-0.358c0.262,0.2,0.229,0.379-0.021,0.586 c-0.193,0.161-0.388,0.378-0.235,0.651c0.173,0.309,0.491,0.302,0.782,0.216c0.271-0.079,0.71-0.108,0.713-0.397 C52.362,34.146,52.084,33.833,51.724,33.743z"/> <path d="M31.904,56.672c-0.185-0.021-0.264-0.119-0.299-0.262c-0.002,0.363,0.061,0.745,0.57,0.879 c0.146,0.037,0.135,0.271,0.148,0.294c-0.037-0.144,0.064-0.508,0.217-0.786C32.325,56.895,32.114,56.699,31.904,56.672z"/> <path d="M32.927,56.436c0.215-0.043,0.407,0.064,0.533,0.24c0.063,0.088,0.131,0.146,0.203,0.193 c-0.058-0.059-0.113-0.131-0.162-0.242C33.395,56.385,33.141,56.316,32.927,56.436z"/> <path d="M32.54,56.797c0.065-0.029,0.13-0.084,0.196-0.182c0.055-0.081,0.121-0.141,0.191-0.18 c-0.025,0.006-0.048,0.004-0.073,0.013C32.743,56.49,32.632,56.627,32.54,56.797z"/> <path d="M31.569,55.855c0.003,0.107,0.009,0.217,0.009,0.324c0,0.09,0.01,0.164,0.027,0.23c0-0.074,0.003-0.148,0.006-0.219 C31.618,56.034,31.601,55.928,31.569,55.855z"/> <path d="M53.556,0C24.025,0,0,24.025,0,53.557c0,29.531,24.025,53.556,53.556,53.556s53.556-24.024,53.556-53.556 C107.112,24.025,83.087,0,53.556,0z M0.75,53.557c0-17.528,8.591-33.08,21.776-42.689c-2.045,1.556-4.022,3.283-5.928,5.188 C6.204,26.449,1.01,38.948,1.01,53.557c0,14.647,5.194,27.158,15.589,37.533c1.822,1.817,3.713,3.467,5.664,4.967 C9.225,86.432,0.75,70.969,0.75,53.557z M12.111,80.109c0.366,0.035,0.508,0.324,0.583,0.629 c-0.009,0.219-0.046,0.469-0.275,0.436c-0.355-0.053-0.433-0.416-0.535-0.699C11.829,80.322,11.891,80.088,12.111,80.109z M14.18,79.454c1.317,0.354,1.956,1.386,2.466,2.535c0.167,0.377,0.172,0.762-0.157,1.037c-0.337,0.282-0.674,0.09-0.967-0.134 C14.363,82.016,13.912,80.857,14.18,79.454z M36.906,94.71c-0.225-0.022-0.52-0.063-0.491-0.34 c0.027-0.265,0.357-0.229,0.567-0.274c0.208-0.043,0.392,0.063,0.386,0.293C37.361,94.658,37.124,94.682,36.906,94.71z M44.55,98.031c-0.127-0.084-0.253-0.168-0.38-0.254c-0.114-0.162-0.286-0.238-0.457-0.32c-0.296-0.145-0.355-0.402-0.281-0.689 c0.075-0.293,0.35-0.256,0.567-0.282c0.142-0.021,0.292,0.03,0.436,0.016c0.857-0.09,1.059,0.021,1.107,0.632 C45.588,97.71,45.303,97.973,44.55,98.031z M46.678,91.066c-0.129,0.082-0.196,0.129-0.115,0.271l0.001,0.004 c-0.784,0.479-1.594,0.807-2.52,0.416c-0.193-0.082-0.398-0.252-0.591-0.148c-0.593,0.311-0.812-0.066-0.968-0.508 c-0.15-0.422-0.534-0.689-0.721-1.117c0.456-0.143,0.824,0.271,1.079,0.234c0.576-0.084,1.251,0.018,1.731-0.438 c0.333-0.317,0.477-0.399,0.593,0.168c0.133,0.653,0.793,0.912,1.404,0.631c0.041,0.002,0.083,0.002,0.124,0.002 C46.919,90.751,46.879,90.939,46.678,91.066z M51.155,84.361c-0.261-0.006-0.449-0.119-0.444-0.408 c0.004-0.213,0.131-0.371,0.347-0.363c0.29,0.008,0.399,0.252,0.512,0.461C51.525,84.303,51.356,84.365,51.155,84.361z M63.953,105.328c7.76-2.135,14.667-6.872,20.714-14.238c8.511-10.375,12.769-22.886,12.769-37.533 c0-11.603-2.696-21.869-8.063-30.812c-0.042,0.01-0.081,0.021-0.128,0.029c0.004,0.125,0.01,0.25,0.016,0.374 c-0.051,0.139-0.104,0.275-0.147,0.415c-0.099,0.314-0.244,0.438-0.522,0.16c-0.119-0.117-0.285-0.277-0.431-0.13 c-0.156,0.158,0.041,0.307,0.146,0.422c0.248,0.275,0.717,0.46,0.34,0.958c-0.014,0.018,0.014,0.099,0.039,0.109 c0.688,0.257,0.766,1.233,1.588,1.343c0.285,0.038,0.381,0.229,0.248,0.512c-0.107,0.229-0.096,0.475,0.104,0.637 c0.23,0.187,0.242-0.128,0.361-0.203c0.086-0.053,0.176-0.041,0.219,0.041c0.119,0.222,0.285,0.485,0.098,0.703 c-0.268,0.314-0.346,0.587-0.111,0.953c0.111,0.174,0.058,0.314-0.215,0.288c-0.424-0.042-0.438,0.307-0.504,0.587 c-0.09,0.378,0.187,0.349,0.431,0.444c0.309,0.121,0.416,0.479,0.602,0.75c0.302,0.44,0.302,0.955,0.486,1.417 c0.08,0.198,0.058,0.418-0.152,0.564c-0.442,0.31-0.549,0.778-0.561,1.273c-0.019,0.712-0.183,1.383,0.139,2.14 c0.271,0.642,0.779,0.712,1.205,0.947c0.799,0.441,1.08,0.835,0.858,1.712c-0.086,0.341-0.09,0.64,0.011,0.974 c0.146,0.485,0.409,0.963,0.127,1.5c-0.078,0.152,0.063,0.318,0.194,0.433c0.623,0.536,0.625,1.19,0.363,1.896 c-0.029,0.054-0.07,0.095-0.127,0.121c-0.385-0.035-0.365-0.474-0.627-0.638c-0.094,0.09-0.115,0.224-0.049,0.287 c0.814,0.756,0.732,1.739,0.533,2.648c-0.174,0.804-0.875,1.257-1.646,1.533c-0.242-0.029-0.311-0.204-0.297-0.401 c0.043-0.582-0.328-0.868-0.764-1.118c-0.961-0.551-1.014-0.707-0.67-1.771c0.115-0.357,0.262-0.707,0.307-1.085 c0.023-0.19,0.074-0.379,0.283-0.446c0.248-0.08,0.314,0.162,0.451,0.276c-0.002-0.011,0.01-0.017-0.006-0.029 c-0.369-0.275-0.104-0.63-0.119-0.949c-0.004-0.086-0.012-0.171-0.016-0.257c0.164-0.303,0.176-0.609-0.088-0.849 c-0.189-0.175-0.104-0.381-0.146-0.572c-0.002-0.024-0.01-0.04-0.012-0.062c-0.24-0.025-0.479-0.047-0.711-0.1 c-0.166-0.038-0.31-0.108-0.414-0.216c-0.054,0.001-0.107,0.006-0.16,0.019c-0.049,0.03-0.1,0.049-0.152,0.068 c-0.078-0.011-0.135,0.012-0.191,0.037c-0.049,0.233-0.061,0.473-0.053,0.717c-0.205-0.042-0.324-0.169-0.412-0.329 c-0.035,0.019-0.062,0.046-0.105,0.051c-0.541-0.083-0.924,0-0.975,0.681c-0.027,0.369-0.326,0.503-0.627,0.212 c-0.568-0.55-1.221-0.87-2.018-0.873c-0.17,0-0.244-0.146-0.336-0.259c-0.271-0.307-0.465-0.626-0.189-1.031 c0.041-0.061,0.09-0.116,0.137-0.172c-0.047-0.097-0.094-0.193-0.153-0.279c-0.229-0.325-0.527-0.347-0.777-0.054 c-0.196,0.233-0.239,0.744-0.637,0.598c-0.384-0.142-0.345-0.62-0.336-0.999c0.002-0.063,0.006-0.125,0.008-0.187 c0.063-0.183,0.233-0.191,0.39-0.23c-0.011-0.007-0.023-0.005-0.031-0.013c-0.01-0.034-0.008-0.068-0.016-0.103 c-0.406,0.164-0.947,0.052-1.236-0.299c0.008-0.195-0.066-0.368-0.16-0.532c-0.123-0.215-0.314-0.428-0.08-0.674 c0.234-0.248,0.529-0.414,0.873-0.442c0.297-0.024,0.26,0.263,0.34,0.444c0.078-0.176,0.117-0.318,0.131-0.443 c-0.172-0.529-0.459-0.645-1.195-0.514c-0.467-0.27-0.889-0.607-1.481-0.615c-0.397-0.005-0.347-0.387-0.39-0.672 c-0.096-0.655-0.184-1.313-0.342-1.958c-0.006,0.207-0.018,0.413-0.053,0.617c-0.035,0.192-0.02,0.398-0.301,0.479 c-0.268,0.077-0.381-0.052-0.514-0.214c-0.031-0.09-0.058-0.183-0.095-0.266c-0.235,0-0.475-0.002-0.713,0.005 c-0.123,0.004-0.325,0.011-0.354,0.075c-0.186,0.44-0.391,0.521-0.756,0.159c-0.154-0.153-0.244,0.077-0.313,0.188 c-0.218,0.343-0.427,0.524-0.736,0.079c-0.122-0.176-0.348-0.226-0.559-0.262c-0.041-0.003-0.082-0.005-0.123-0.005 c-0.358,0.34-0.772,0.487-1.267,0.376c-0.653-0.089-0.588,0.377-0.358,0.636c0.444,0.51,0.03,1.214,0.481,1.685 c0.01,0.011,0.006,0.047-0.004,0.061c-0.76,1.025,0.31,1.776,0.398,2.673c0.121,0.044,0.242,0.089,0.363,0.134 c0.387,0.225,0.627,0.543,0.66,1.007c0.008,0.121,0.043,0.281,0.125,0.348c0.764,0.617,0.631,1.637,1.09,2.389 c0.102,0.166,0.086,0.478,0.395,0.346c0.234-0.1,0.156-0.308,0.041-0.479c-0.076-0.116-0.117-0.235,0.018-0.33 c0.148-0.104,0.244,0.036,0.314,0.119c0.629,0.736,1.32,0.679,2.16,0.339c0.404-0.164,0.902-0.594,1.428-0.142 c0.082,0.07,0.184-0.048,0.256-0.128c0.113-0.125,0.051-0.467,0.314-0.375c0.223,0.077,0.125,0.368,0.145,0.568 c0,0.012,0,0.024,0,0.036c0.039,0,0.078,0,0.117-0.001c0.318,0.109,0.68,0.084,0.963,0.299c0.025,0.035,0.031,0.076,0.039,0.117 c0.037-0.021,0.074-0.039,0.113-0.057c0.135-0.133,0.34-0.162,0.5-0.256c0.184-0.019,0.402-0.048,0.408,0.217 c0.006,0.281,0.121,0.5,0.291,0.698c0.16,0.186,0.096,0.374-0.031,0.499c-0.293,0.289-0.119,0.438,0.127,0.591 c0.527,0.529,0.496,1.357,1.012,1.892c0.01,0.285,0.123,0.541,0.314,0.733c0.43,0.436,0.436,1.084,0.826,1.549 c0.174,0.205-0.076,0.424-0.31,0.503c-0.26,0.088-0.528,0.089-0.797-0.005c-0.146-0.052-0.312-0.259-0.442-0.101 c-0.15,0.178,0.063,0.333,0.162,0.484h-0.005c-0.26,0.197,0.023,0.573-0.252,0.765l-0.004,0.001 c-0.174,0.153-0.387,0.231-0.575,0.083c-0.365-0.285-0.802-0.282-1.197-0.245c-0.609,0.056-1.088-0.356-1.666-0.356 c-0.068,0-0.127-0.05-0.154-0.095c-0.404-0.658-1.09-0.989-1.646-1.468c-0.336-0.289-0.518-0.801-0.371-1.395 c0.189-0.759,0.342-1.541,0.396-2.328c-0.056-0.062-0.104-0.129-0.181-0.168c-0.178-0.137-0.387-0.148-0.598-0.157 c-0.139-0.006-0.246-0.053-0.342-0.113c-0.131-0.043-0.262-0.098-0.395-0.166c-0.635-0.326-0.814-0.188-0.851,0.522 c-0.008,0.146-0.008,0.295-0.028,0.44c-0.037,0.271-0.174,0.501-0.445,0.55c-0.287,0.051-0.389-0.216-0.473-0.423 c-0.244-0.596-0.652-0.959-1.31-1.036c-0.138-0.017-0.287-0.089-0.396-0.18c-0.375-0.316-0.692-0.059-0.723,0.224 c-0.064,0.619-0.83,0.429-0.955,0.947c-0.02,0.087-0.227-0.07-0.201-0.199c0.072-0.377-0.061-0.651-0.354-0.878 c-0.057-0.044-0.111-0.16-0.092-0.217c0.232-0.708-0.438-0.579-0.73-0.757c-0.346-0.21-0.691-0.136-0.898,0.308 c-0.139-0.269-0.059-0.501-0.086-0.724c-0.256-0.248-0.082-0.52,0.021-0.734c0.08-0.172,0.125-0.273-0.019-0.405 c-0.004-0.042-0.006-0.083-0.01-0.123c0.402-0.206,0.851-0.005,1.26-0.135c0.002-0.038,0.005-0.075,0.005-0.112 c-0.355-0.182-0.574-0.523-0.882-0.762c-0.039-0.003-0.078-0.006-0.116-0.008c-0.285-0.271-0.521-0.583-0.731-0.912 c0,0.217-0.248,0.327-0.48,0.412c-0.369,0.133-0.73,0.213-1.029,0.525c-0.223,0.234-0.551,0.076-0.807-0.08 c-0.615-0.379-0.965-0.328-1.506,0.18c-0.176,0.166-0.332,0.399-0.629,0.386c-0.871,0.042-0.871,0.042-0.867-0.792 c0-0.172-0.104-0.454-0.223-0.322c-0.423,0.462-0.595-0.024-0.855-0.155c-0.148-0.075-0.287-0.169-0.43-0.255 c-0.316,0.021-0.666-0.074-0.896,0.252c-0.381,0.641-0.379,0.639-0.854,0.006c-0.072-0.096-0.166-0.2-0.273-0.242 c-0.42-0.164-0.469-0.385-0.146-0.694c0.15-0.144,0.287-0.383,0.053-0.462c-0.768-0.26-0.778-1.3-1.647-1.486 c-0.373-0.08-0.041-0.496,0.024-0.753c-0.717-0.014-1.364-0.301-2.057-0.198c-0.197,0.029-0.271-0.135-0.289-0.333 c-0.045-0.505,0.389-0.715,0.644-1.022c0.092-0.113,0.317,0.038,0.356,0.23c0.043,0.21,0.152,0.235,0.314,0.15 c0.092-0.047,0.221-0.099,0.244-0.175c0.059-0.192-0.139-0.216-0.252-0.301c-0.322-0.245-0.807-0.346-0.912-0.792 c-0.02-0.008-0.039-0.015-0.057-0.022c-0.058-0.008-0.113-0.014-0.172-0.02c-0.099-0.077-0.17-0.157-0.228-0.24 c-0.063-0.027-0.119-0.07-0.146-0.163c-0.063-0.225,0.086-0.387,0.246-0.525c0.043-0.037,0.088-0.073,0.131-0.11 c0.029-0.096,0.053-0.194,0.076-0.292c-0.549,0.246-0.934,0.664-1.176,1.239c-0.053,0.125-0.188,0.195-0.328,0.124 c0.193,0.156,0.383,0.342,0.586,0.511c0.096,0.08,0.195,0.169,0.248,0.283c0.08,0.168,0.305,0.446,0.119,0.514 c-0.623,0.228-0.148,1.218-0.908,1.257c-0.43,0.022-0.541,0.173-0.383,0.541c0.117,0.273,0.053,0.553,0.064,0.829 c0.062,0,0.127,0.013,0.186,0.049c0.348,0.216,0.709,0.458,0.734,0.933c0.023,0.429-0.146,0.706-0.578,0.884 c-0.699,0.29-1.072,0.885-1.26,1.603c-0.014,0.004-0.025,0.001-0.039,0.002c0.34,0.806-0.504,1.961-1.375,1.758 c-0.229-0.053-0.459-0.034-0.689-0.003c-0.81,0.11-1.097,0.798-0.605,1.461c0.22,0.297,0.527,0.461,0.869,0.596 c0.646,0.255,0.701,0.467,0.324,1.047c-0.211,0.326-0.092,0.587,0.311,0.763c0.193,0.084,0.408,0.139,0.531,0.37 c0.062,0.111,0.176,0.228,0.076,0.305c-0.277,0.215-0.551,0.42-0.799,0.678c-0.15,0.158-0.369,0.042-0.566-0.031 c0,0.004,0,0.008,0,0.012c0.006,0.077-0.006,0.151-0.006,0.227c0.129,0.333,0.295,0.29,1.006,0.093 c0.063,0.157,0.207,0.234,0.328,0.331c0.34,0.269,0.32,0.583-0.072,1.054c-0.196,0.108-0.452,0.13-0.583,0.34 c-0.105,0.168-0.412,0.226-0.33,0.482c0.076,0.236,0.367-0.104,0.525,0.235c-0.467,0.081-0.887,0.291-1.356,0.323 c-0.084,0.09-0.178,0.177-0.268,0.251c-0.396,0.033-0.813,0.349-1.19-0.059c-0.005-0.07,0.001-0.136,0.003-0.203 c-0.396-0.073-0.795,0.013-1.192,0.022c-0.039,0.078-0.079,0.156-0.127,0.25c-0.346,0.096-0.681,0.209-0.884,0.539 c-0.033,0.055-0.079,0.131-0.126,0.133c-0.779,0.049-1.512,0.615-2.325,0.274c-0.001,0.003-0.003,0.006-0.004,0.009 c0.012,0.029,0.026,0.06,0.036,0.085c0.19,0.478,0.54,0.617,0.997,0.544c0.652-0.103,1.067,0.128,1.221,0.784 c0.123,0.404,0.037,0.724-0.332,0.98c-0.442,0.309-0.776,0.809-1.423,0.707c-0.22-0.035-0.233,0.143-0.244,0.301 c0,0.26-0.231,0.334-0.382,0.473c-0.27,0.103-0.384,0.35-0.512,0.572c-0.268,0.469-0.233,0.537,0.298,0.59 c0.398,0.041,0.744,0.252,1.14,0.314c0.317,0.051,0.22,0.348,0.243,0.598c0.039-0.293,0.279-0.246,0.469-0.27 c0.609-0.072,1.211,0.09,1.821,0.047c0.185-0.013,0.356,0.092,0.347,0.285c-0.042,0.854,0.633,1.139,1.193,1.453 c1.048,0.59,1.064,0.559,1.288,1.672c0.283-0.344,0.291-0.805,0.646-1.081c0.453-0.353,0.605-0.349,0.801,0.179 c0.068,0.188,0.286,0.328,0.202,0.57c-0.004,0.09-0.002,0.18-0.023,0.268c-0.01,0.006-0.016,0.017-0.025,0.021 c0.518,0.216,0.834,0.58,1.078,1.164c0.396,0.943,0.354,1.794,0.006,2.689c-0.113,0.289-0.188,0.627-0.547,0.627 c0,0.002,0.002,0.004,0.002,0.006c-0.01,0.096-0.006,0.187-0.01,0.279c0.143,0.37,0.129,0.821,0.533,1.061 c0.197,0.115,0.369,0.271,0.553,0.408c0.693,0.022,1.27,0.234,1.59,0.916c0.145,0.304,0.408,0.438,0.752,0.488 c0.41,0.061,0.834,0.117,1.191,0.367c-0.1,0.826-0.072,1.072,0.293,1.973c0.148,0.367,0.225,0.713-0.037,1.057 c0,0.025-0.002,0.054-0.002,0.08c0.041-0.004,0.08-0.014,0.121,0.002c0.311,0.543,0.25,0.98-0.34,1.455 c-0.406,0.328-0.732,0.752-1.209,0.998c-0.297,0.152-0.34,0.33-0.144,0.652c0.166,0.273,0.636,0.625,0.056,0.979 c-0.123,0.111-0.269,0.209-0.367,0.339c-0.361,0.461-0.797,0.633-1.381,0.476c-0.551-0.146-1.074-0.074-1.525,0.325 c-0.254,0.226-0.418,0.42,0.064,0.537c0.174,0.041,0.354,0.063,0.303,0.299c-0.045,0.19-0.217,0.265-0.391,0.248 c-0.205-0.021-0.406-0.088-0.609-0.135c-0.313-0.072-0.621-0.052-0.76,0.269c-0.215,0.495-0.611,0.475-1.001,0.377 c-0.511-0.129-1.016-0.265-1.546-0.185c-0.307,0.047-0.439-0.33-0.739-0.276c-0.24-0.025-0.465-0.135-0.695-0.213 c0.024,0.01,0.052,0.018,0.075,0.03c0.2,0.103,0.42,0.176,0.604,0.313c0.145,0.231,0.233,0.492,0.314,0.754 c0.009,0.176,0.077,0.303,0.27,0.342c0.169,0.033,0.228,0.148,0.213,0.316c-0.018,0.186-0.147,0.237-0.295,0.271 c-0.203,0.047-0.399,0.123-0.601,0.172c-0.309,0.073-0.523,0.181-0.529,0.56c-0.004,0.229-0.194,0.401-0.363,0.563 c-0.147,0.142-0.356,0.303-0.224,0.524c0.12,0.201,0.337,0.07,0.516,0.033c0.489-0.102,1.003-0.148,1.243-0.699 c0.034-0.08,0.147-0.059,0.23-0.059c0.548-0.092,0.881,0.17,1.049,0.666c0.207,0.607-0.052,0.938-0.708,0.986 c-0.613,0.045-1.157,0.346-1.722,0.559c-0.253,0.096-0.313,0.42-0.167,0.592c0.639,0.752,0.313,1.424-0.102,2.105 c-0.084,0.082-0.168,0.166-0.251,0.248c-0.293-0.287-0.628-0.484-1.051-0.498c-0.741-0.023-0.962-0.713-1.395-1.121 c-0.15-0.141,0.1-0.225,0.226-0.27c0.359-0.125,0.368-0.351,0.2-0.637c-0.248-0.423-0.41-0.869-0.382-1.369 c-0.39-0.093-0.641-0.211-0.231-0.625c0.23-0.232,0.509-0.494,0.141-0.877c-0.176-0.185-0.12-0.455,0.107-0.593 c0.15-0.091,0.285-0.208,0.43-0.308c-0.354,0-0.677-0.053-0.853-0.551c-0.107-0.307-0.541-0.276-0.85-0.162 c-0.227,0.086-0.531,0.179-0.507,0.484c0.025,0.344,0.262,0.57,0.61,0.627c0.198,0.033,0.348,0.133,0.501,0.246 c0.328,0.24,0.302,0.477-0.077,0.568c-0.363,0.088-0.619,0.219-0.687,0.607c0,0.002-0.039,0.002-0.055-0.006 c-0.018-0.009-0.029-0.029-0.044-0.043c-0.822,0.036-0.854,0.073-0.877,1.004c0.001,0.041,0.002,0.082,0.004,0.123 c0.267-0.056,0.504,0.063,0.75,0.129c0.392,0.896,0.334,0.975-0.753,1.012c0.001,0.123,0.003,0.248,0.005,0.371 c0.476,0.084,0.855,0.125,0.708,0.856c-0.101,0.498,0.084,1.138,0.701,1.425c0.178,0.082,0.368,0.2,0.268,0.422 c-0.1,0.223-0.25-0.056-0.374-0.019c-0.694,0.213-1.417-0.174-2.122,0.153c-0.462,0.217-1.24,0.041-1.637-0.25 c-0.006-0.004-0.014-0.008-0.02-0.014c-0.073-0.056-0.137-0.113-0.176-0.176c-0.002-0.039-0.004-0.078-0.007-0.119 c-0.042,0.094-0.117,0.184-0.122,0.279c-0.052,1.096-0.268,1.277-1.396,1.148c-0.082-0.01-0.163-0.027-0.244-0.043 c-0.152-0.498-0.502-0.73-1.01-0.754c-0.406-0.029-0.786-0.117-1.017-0.502c-0.475-0.209-0.952-0.412-1.421-0.631 c-0.088-0.041-0.215-0.148-0.209-0.216c0.045-0.606-0.382-0.635-0.809-0.731c-0.579-0.133-0.875-0.685-1.331-1.008 c-0.171-0.121-0.06-0.367,0.04-0.521c0.22-0.339,0.106-0.562-0.161-0.812c-0.37-0.346-0.545-1.496-0.347-1.949 c0.138-0.312,0.438-0.271,0.695-0.332c-0.422-0.211-0.668-0.53-0.749-1.014c-0.07-0.426-0.512-0.592-0.836-0.32 c-0.168,0.142-0.309,0.23-0.494,0.121c-0.289-0.172-0.401,0.021-0.452,0.228c-0.052,0.213,0.044,0.371,0.31,0.342 c0.333-0.036,0.329,0.125,0.251,0.386c-0.277,0.922-0.269,0.922-1.233,0.682c-0.436-0.107-0.665,0.059-0.586,0.52 c0.08,0.465,0.24,0.928,0.079,1.398c-0.125,0.363-0.234,0.762-0.785,0.426c-0.39-0.24-0.55,0.002-0.5,0.379 c0.039,0.301-0.021,0.449-0.352,0.406c-0.193-0.023-0.295,0.125-0.419,0.24c-0.517,0.471-0.584,0.445-0.734-0.256 c-0.017-0.084-0.036-0.166-0.054-0.248c-0.182-0.56-0.621-0.963-0.888-1.479c-0.283-0.545-0.897-0.685-1.509-0.664 c-0.107,0.229-0.238,0.438,0.022,0.679c0.171,0.155,0.224,0.396,0.175,0.746c-0.744-0.607-1.562-0.908-2.476-0.916 c-0.477-0.146-0.938-0.402-1.465-0.207c-0.054,0.021-0.155,0.026-0.181-0.004c-0.484-0.589-1.256-0.642-1.878-0.951 c-0.783-0.392-1.266-1.115-2.028-1.494c-0.212-0.105-0.352-0.188-0.619-0.109c-0.338,0.102-0.741-0.051-0.813-0.42 c-0.186-0.957-1.049-1.043-1.694-1.338c-0.738-0.34-1.025-0.738-0.788-1.543c-0.291-0.553-0.528-1.129-0.734-1.721 c-0.117-0.334-0.304-0.646-0.652-0.808c-0.562-0.131-0.914-0.502-1.11-1.021c-0.225-0.59-0.791-0.711-1.267-0.946 c-0.183-0.093-0.336,0-0.292,0.243c0.022,0.125,0.071,0.244,0.088,0.367c0.026,0.189,0.053,0.418-0.189,0.467 c-0.244,0.048-0.349-0.18-0.338-0.36c0.038-0.646-0.286-1.153-0.553-1.698c-0.162-0.33-0.339-0.443-0.684-0.351 c-0.576,0.155-0.978-0.093-1.251-0.586c-0.235-0.427-0.485-0.832-0.937-1.072c-0.397-0.211-0.113-0.563-0.158-0.853 c-0.002-0.082-0.005-0.162-0.008-0.244c-0.536-0.301-0.615-0.859-0.766-1.374c-0.087-0.3-0.157-0.604-0.234-0.905 c-0.202-0.927-0.927-1.641-1.058-2.598c-0.015-0.107-0.104-0.205-0.221-0.168c-0.231,0.074-0.129,0.257-0.123,0.42 c0.026,0.754,0.157,1.5,0.219,2.251c-0.129-0.199-0.26-0.396-0.393-0.591c-0.768-4.006-1.23-8.045-1.032-12.135 c0.185-3.829,0.752-7.598,1.698-11.328c0.592-2.336,1.333-4.596,2.284-6.798l0,0c0.111-0.453,0.281-0.884,0.502-1.295 c0.37-0.429,0.48-0.985,0.714-1.48c0.783-1.651,1.671-3.237,2.636-4.776c0.35-0.105,0.69-0.256,1.003-0.487 c-0.537,0.828-1.078,1.653-1.593,2.496c-0.351,0.574-0.543,1.208-0.829,1.807c-0.292,0.064-0.366,0.256-0.374,0.539 c-0.007,0.266-0.124,0.395-0.321,0.373c0.222,0.248,0.275,0.618,0.494,0.916c0.296-0.35,0.658-0.604,0.856-1.001 c0.43-0.864,1.084-1.566,1.698-2.29c0.595-0.7,1.134-1.443,1.707-2.149c0.657-0.811,1.369-1.628,2.235-2.262 c0.301,0.084,0.562-0.004,0.791-0.197c0.159-0.133,0.333-0.24,0.518-0.333c0.871-0.444,1.104-0.366,1.448,0.484 c-0.15,0.637-0.533,1.15-0.946,1.633c-0.673,0.788-1.495,1.451-1.724,2.561c-0.114,0.552-0.626,0.661-1.51,0.444 c0.482,0.994,0.389,1.918-0.269,2.793c-0.137,0.183-0.233,0.352-0.493,0.239c-0.003-0.003-0.006-0.007-0.009-0.011 c-0.136,0.464-0.253,0.92-0.742,1.217c-0.321,0.195-0.33,0.86-0.95,0.643c-0.016,0.08-0.052,0.162-0.044,0.24 c0.016,0.181,0.104,0.533,0.184,0.462c0.408-0.354,0.688,0.62,1.052,0.068c0.171-0.259,0.444-0.291,0.708-0.355 c0.704-0.173,0.772-0.341,0.39-0.97c-0.093-0.152-0.182-0.414,0.024-0.4c0.601,0.038,0.757-0.4,1.012-0.964 c0.153,0.719,0.672,1.079,0.686,1.683c0.007,0.278,0.161,0.375,0.422,0.267c0.194-0.08,0.383-0.169,0.574-0.255 c-0.037-0.002-0.074-0.004-0.11-0.007c-0.346-0.302-0.714-0.583-0.384-1.135c0.063-0.104-0.066-0.315-0.085-0.479 c-0.083-0.694-0.115-1.38,0.458-1.918c0.087-0.041,0.174-0.082,0.261-0.123c0.638-0.479,1.104-1.126,1.648-1.695 c0.295-0.308,0.546-0.549,1.058-0.445c0.457,0.092,0.947-0.04,1.325-0.388c-0.141-1.186,0.562-2.051,1.15-2.946 c0.413-0.627,0.895-1.207,1.347-1.807c0.075-0.1,0.172-0.104,0.278-0.054c0.023-0.643,0.441-0.736,0.979-0.784 c1.003-0.09,1.973-0.324,2.868-0.957c-0.285-0.217-0.648-0.117-0.817-0.393c-0.012-0.018-0.027-0.034-0.034-0.054 c-0.258-0.694,0.421-0.868,0.715-1.246c0.2-0.256,0.497-0.411,0.833-0.186c0.322,0.216,0.312,0.771-0.043,1.111 c-0.163,0.156-0.385,0.25-0.581,0.372c0.643,0.308,1.182-0.103,1.741-0.28c0.757-0.241,1.484-0.579,2.297-0.603 c0.321,0.006,0.596-0.147,0.884-0.254c0.508-0.228,0.889,0.138,0.997,0.46c0.138,0.414,0.352,0.375,0.63,0.357 c0.243-0.015,0.458,0.033,0.646,0.19c0.139,0.027,0.245,0.089,0.257,0.249c0.294,0.002,0.587,0.005,0.881,0.008 c0.034-0.023,0.065-0.053,0.103-0.066c0.328-0.116,0.319-0.692,0.709-0.621c0.325,0.059,0.585,0.358,0.87,0.557 c0.067,0.046,0.142,0.082,0.21,0.127c0.125,0.001,0.25,0.002,0.375,0.002c0.295,0.216,0.59,0.208,0.883-0.003l0.001-0.001 c0.271-0.162,0.48-0.451,0.875-0.338c0.341,0.098,0.593,0.234,0.669,0.619c0.08,0.406-0.305,0.361-0.536,0.548 c0.547,0.282,1.219-0.066,1.636,0.447c0.012,0.196,0.095,0.316,0.313,0.285c0.308-0.045,0.559,0.127,0.832,0.214 c0.252,0.039,0.458,0.361,0.755,0.121c0.004-0.25,0.008-0.499,0.012-0.748c0.053-0.041,0.087-0.042,0.115-0.032 c-0.007-0.136-0.102-0.262-0.062-0.405l0,0c-0.085-0.086-0.092-0.252-0.19-0.325c-0.41-0.207-0.508-0.469-0.163-0.831 c0.083-0.088,0.172-0.21,0.181-0.324c0.114-1.473,1.143-1.979,2.382-2.176c0.653-0.104,1.211-0.551,1.87-0.602 c-0.082-0.193-0.036-0.431-0.016-0.648c0.038-0.411-0.038-0.587-0.511-0.497c-0.53,0.1-0.835-0.264-0.759-0.811 c-0.023,0.027-0.046,0.045-0.079,0.067c-0.527,0.038-0.559-0.364-0.646-0.724c0.198-0.338,0.426-0.624,0.881-0.614 c0.231,0.005,0.366-0.146,0.371-0.39c0.046-0.106,0.122-0.19,0.186-0.272c-0.583-0.099-1.209,0.027-1.706-0.397 c-0.071-0.053-0.122-0.128-0.191-0.182c-0.46-0.36-0.38-0.802-0.195-1.265c0.077-0.193,0.19-0.312,0.415-0.313 c0.54-0.004,0.563-0.325,0.427-0.727c-0.098-0.292-0.16-0.572-0.032-0.793c-0.217,0.223-0.328,0.496-0.182,0.884 c0.129,0.343-0.039,0.492-0.347,0.552c-0.271,0.053-0.544-0.012-0.817,0.005c-0.687,0.043-0.749,0.101-0.843,0.817 c-0.055,0.216-0.149,0.407-0.329,0.545c-0.669,0.117-1.095-0.367-1.429-0.761c-0.369-0.435-0.521-0.457-0.769,0.021 c-0.139,0.268-0.356,0.39-0.653,0.415c-1.165,0.1-1.606,0.993-2.039,1.886c-0.086,0.178-0.005,0.368,0.039,0.552 c0.204,0.86,0,1.177-0.852,1.448c-0.509,0.162-1.09,0.304-1.539,0.165c-0.604-0.189-1.282-0.289-1.798-0.728 c-0.156-0.134-0.308-0.368-0.442,0.016c-0.158,0.288,0.18,0.742-0.309,0.918c-0.56,0.202-1.095,0.552-1.724,0.189 c-0.421-0.242-0.874-0.264-1.328-0.081c-0.227,0.091-0.441,0.169-0.563-0.141c-0.914,0.18-1.741,0.604-2.583,0.968 c-1.027,0.445-1.741,1.259-2.305,2.215c-0.404,0.685-1,1.173-1.707,1.522c-0.266,0.131-0.531,0.021-0.798-0.039 c-0.207-0.045-0.388-0.028-0.284,0.291c0.334,1.03,0.132,1.52-0.868,2.157c-0.126-0.294,0.068-0.522,0.15-0.772 c0.049-0.147,0.043-0.299-0.11-0.387c-0.128-0.074-0.244-0.001-0.349,0.071c-0.291,0.197-0.434,0.505-0.595,0.799 c-0.124,0.226-0.264,0.46-0.569,0.405c-0.286-0.052-0.304-0.31-0.336-0.541c-0.302-0.06-0.605-0.119-0.874-0.171 c-0.167-0.713,0.13-1.394,0.12-2.099c0.018-0.026,0.035-0.053,0.052-0.078c0.5,0.045,1.065-0.312,1.102-0.794 c0.027-0.358,0.183-0.53,0.467-0.654c0.477-0.03,0.918-0.109,0.946-0.729c0.008-0.169,0.126-0.261,0.26-0.336 c0.29-0.045,0.635,0.171,0.866-0.179c0.031-0.003,0.063-0.006,0.093-0.009c0.349-0.122,0.583-0.336,0.795-0.663 c0.302-0.465,0.833-0.691,1.367-0.787c0.961-0.173,1.933-0.301,2.602-1.123c0.476-0.584,1.175-0.872,1.728-1.352 c0.06-0.052,0.167-0.113,0.225-0.093c0.743,0.261,1.395-0.141,2.086-0.261c0.368-0.063,0.695-0.153,0.918-0.476 c0.035-0.051,0.12-0.13,0.134-0.122c0.624,0.401,1.084-0.205,1.631-0.26c0.154-0.015,0.256,0.065,0.259,0.208 c0.011,0.708,0.352,0.309,0.582,0.165c0.172-0.108,0.309-0.272,0.51-0.456c-0.319-0.182-0.604-0.346-0.89-0.507 c-0.113-0.064-0.223-0.134-0.223-0.28c0-0.18,0.133-0.266,0.282-0.288c0.563-0.086,1.014-0.565,1.706-0.292 c0.449,0.177,1.008-0.048,1.197-0.652c0.165-0.523,0.665-0.603,1.068-0.804c0.44-0.22,0.951-0.312,1.166-0.864 c0.118-0.304,0.484-0.304,0.754-0.402c1.119-0.41,2.239-0.816,3.363-1.209c0.383-0.134,0.792-0.079,1.19-0.094 c0.249-0.009,0.519,0.025,0.697-0.207c0.139-0.181,0.318-0.366,0.517-0.192c0.251,0.22,0.697,0.269,0.715,0.718 c0.007,0.188-0.005,0.378-0.009,0.567c0.93,0.733,1.135,1.997,2.021,2.764c0.229,0.199,0.194,0.453,0.042,0.682 c-0.103,0.154-0.241,0.284-0.368,0.421c-0.178,0.189-0.493,0.314-0.388,0.649c0.042,0.132,0.12,0.211,0.212,0.27 c0.082-0.056,0.167-0.108,0.247-0.167c0.307-0.154,0.612-0.029,0.917,0.011c0.165,0.021,0.395,0.144,0.483,0.027 c0.296-0.392,0.793-0.469,1.117-0.757c0.326-0.292,0.526-0.299,0.804-0.036c0.211,0.201,0.417,0.395,0.525,0.692 c0.117,0.324,0.535,0.35,0.704,0.06c0.119-0.206,0.365-0.197,0.532-0.381c-0.074-0.279-0.501-0.392-0.422-0.768 c0.05-0.243,0.241-0.387,0.36-0.582c0.166-0.277,0.441-0.291,0.719-0.293c0.455-0.003,0.875-0.099,1.211-0.434 c0.655-0.144,1.019,0.357,1.391,0.714c0.718,0.684,1.438,1.058,2.438,0.604c0.373-0.169,0.732,0.125,1.009,0.381 c0.192,0.178,0.147,0.371-0.129,0.478c-0.359,0.14-0.709,0.261-1.099,0.097c-0.145-0.062-0.305-0.168-0.479-0.022 c0.073,0.271,0.344,0.349,0.515,0.521c-0.082,0.125-0.162,0.25-0.244,0.375c-0.316,0.082-0.664,0.215-0.549,0.598 c0.098,0.326,0.479,0.25,0.762,0.247c0.184-0.002,0.383-0.242,0.545,0.04c-0.594,0.091-1.15,0.354-1.775,0.32 c-0.283-0.015-0.539-0.045-0.77-0.207c-0.23-0.161-0.438-0.181-0.693-0.017c-0.404,0.257-0.918,0.101-1.148-0.313 c-0.062-0.109-0.092-0.239-0.166-0.336c-0.131-0.17-0.32-0.185-0.516-0.119c-0.105,0.036-0.197,0.111-0.178,0.228 c0.057,0.317,0.342,0.003,0.49,0.2c-0.393,0.437-0.297,0.79,0.254,1.038c0.223,0.101,0.328,0.258,0.328,0.543 c0,0.685,0.258,0.919,0.957,0.93c0.692,0.011,1.389-0.026,2.08,0.005c0.354,0.016,0.778,0.001,0.717,0.616 c-0.012,0.106,0.465,0.303,0.735,0.389c0.324,0.102,0.656,0.182,0.978,0.303c0.059-0.052,0.129-0.095,0.227-0.105 c0.18-0.002,0.359-0.023,0.529,0.054c0.369,0.09,0.607,0.431,0.977,0.521c0.137,0.122,0.344,0.222,0.436,0.047 c0.316-0.602,0.779-0.303,1.199-0.236c0.355,0.058,0.693,0.303,0.869-0.317c0.09-0.32,0.535-0.243,0.813-0.065 c0.168,0.108,0.291,0.252,0.478,0.053c0.631,0,1.231,0.063,1.512,0.761c0.055,0.114,0.106,0.229,0.166,0.341 c0.131,0.25,0.19,0.665,0.565,0.55c0.416-0.127,1.043,0.047,1.164-0.639V19.87c0.593,0.152,1.125,0.517,1.765,0.511 c-0.064,0.108-0.107,0.237-0.195,0.319c-0.223,0.207-0.555,0.354-0.367,0.751c0.191,0.412,0.518,0.643,0.975,0.683 c0.25,0.021,0.51,0.01,0.748,0.076c0.422,0.118,0.865,0.253,1.008,0.748c0.189,0.649,0.621,0.844,1.248,0.706 c0.41-0.134,0.799-0.181,1.178,0.128c0.183,0.149,0.443,0.113,0.673,0.066c0.735-0.153,1.346,0.063,1.769,0.673 c0.284,0.412,0.562,0.433,0.926,0.145c0.639,0.017,1.244,0.14,1.754,0.561c0.229,0.188,0.506,0.178,0.774,0.189 c0.24,0.297,0.591,0.291,0.916,0.312c0.359,0.023,0.646,0.149,0.847,0.451c0.83,0.324,1.655,0.654,2.49,0.97 c0.108,0.042,0.219,0.083,0.319,0.136c0.049-0.13,0.094-0.261,0.123-0.399c0.065-0.308,0.233-0.554,0.596-0.508 c0.359,0.046,0.515-0.098,0.615-0.435c0.094-0.306,0.354-0.43,0.69-0.412c0.31,0.016,0.486,0.126,0.588,0.429 c0.058,0.164,0.193,0.314,0.382,0.535c-0.537-0.671-0.726-1.406-1.027-2.078c-0.205-0.46-0.762-0.494-0.887-0.969 c-0.123-0.467-0.048-1.015-0.459-1.374c-0.44-0.384-0.214-0.803-0.106-1.219c0.028-0.117,0.151-0.13,0.256-0.151 c0.02,0.003,0.032,0.014,0.053,0.018c0.016-0.104-0.098-0.168-0.211-0.23v-0.655c0.646,0.533,1.256,0.965,1.772,1.486 c0.224,0.224,0.479,0.395,0.733,0.567c-1.26-2.016-2.654-3.966-4.192-5.844C78.609,8.663,71.691,3.913,63.918,1.779 c24.174,4.829,42.444,26.207,42.444,51.777C106.362,79.115,88.107,100.485,63.953,105.328z M69.077,17.503 c0.058,0.192,0.267,0.368,0.071,0.572c-0.18,0.188-0.344,0.045-0.495-0.072c-0.168-0.129-0.384-0.009-0.55-0.091 c-0.229-0.114-0.771-0.126-0.237-0.574c0.215-0.182,0.062-0.314-0.103-0.377c-0.516-0.205-0.254-0.554-0.149-0.843 c0.108-0.3,0.394-0.285,0.646-0.217c0.323,0.087,0.512,0.286,0.457,0.472C68.555,16.976,68.977,17.169,69.077,17.503z M76.93,13.591c-0.105-0.109-0.238-0.208-0.146-0.369c0.103-0.169,0.293-0.142,0.457-0.122c0.121,0.014,0.248,0.055,0.353,0.117 c0.385,0.227,0.709,0.541,1.227,0.523c0.189-0.006,0.539,0.128,0.484,0.572c-0.047,0.369,0.594,0.341,0.619,0.751l0.002,0.001 c0.44-0.042,0.709,0.244,0.983,0.518c0.138,0.103,0.299,0.188,0.448,0.212c0.355,0.058,0.558,0.235,0.699,0.56 c0.111,0.249,0.289,0.445,0.601,0.541c0.437,0.133,0.573,0.544,0.471,0.938c-0.104,0.401-0.004,0.676,0.244,0.968 c0.613,0.72,0.541,2.103-0.155,2.732c-0.244,0.219-0.386,0.556-0.73,0.665c-0.064-0.012-0.129-0.004-0.193-0.008 c-0.248,0.202-0.592,0.021-0.875,0.084c-0.016-0.013-0.031-0.018-0.047-0.03c-0.311,0.042-0.621,0.07-0.934,0.007 c0.016,0.055,0.014,0.113-0.043,0.182c-0.086,0.105-0.236,0.146-0.34,0.079c-0.572-0.379-1.375-0.342-1.789-0.999l-0.002-0.001 c-0.605-0.123-1.068-0.562-1.644-0.754c-0.039-0.003-0.078-0.005-0.117-0.008c-0.254-0.115-0.471-0.3-0.741-0.391 c-0.129-0.042-0.271-0.211-0.183-0.331c0.511-0.668-0.149-0.769-0.478-1.035c-0.041-0.001-0.08-0.004-0.121-0.008 c-0.067-0.167-0.131-0.334,0.003-0.501c-0.003-0.041-0.007-0.082-0.007-0.122c0,0,0,0-0.002,0 c-0.51,0.204-0.575-0.357-0.879-0.509c-0.574-0.506-1.133-1.011-1.057-1.894c0.02-0.226,0.014-0.421,0.24-0.525 c0.221-0.101,0.195-0.289,0.215-0.479c0.08-0.856,0.605-1.498,1.287-1.851c0.375-0.195,0.912,0.245,1.258,0.612 c0.129,0.135,0.213,0.311,0.318,0.468c0.135-0.054,0.268-0.117,0.408-0.159C77.018,13.947,77.163,13.834,76.93,13.591z M84.869,22.535c0.027-0.248,0.189-0.317,0.408-0.246c0.275,0.09,0.566,0.136,0.809,0.333c0.393,0.318,0.439,0.539-0.123,0.664 c-0.088-0.084-0.174-0.168-0.262-0.251c-0.139-0.162-0.309-0.195-0.514-0.162C84.93,22.913,84.842,22.764,84.869,22.535z"/> </g> </g> </g>
<g id="SVGRepo_iconCarrier"> <g> <path d="M44.691,10.521c0.098-0.101,0.211-0.195,0.343-0.278C44.859,10.317,44.754,10.412,44.691,10.521z"/> <g> <path d="M34.336,56.791c-0.099,0.088-0.202,0.139-0.304,0.169c0.033-0.002,0.063,0.001,0.099-0.004 c0.387-0.052,0.625,0.162,0.756,0.521c0.122,0.332,0.175,0.697,0.434,0.967c-0.097-0.689,0.269-1.161,0.911-1.223 c-0.281-0.067-0.538-0.276-0.776-0.424C35.046,56.541,34.741,56.438,34.336,56.791z"/> <path d="M31.745,54.545c0.009,0.053,0.035,0.102,0.058,0.15c0.011-0.135-0.002-0.279-0.057-0.441 C31.745,54.352,31.728,54.443,31.745,54.545z"/> <path d="M34.033,56.96c-0.143,0.007-0.264-0.022-0.369-0.091C33.776,56.982,33.903,56.998,34.033,56.96z"/> <path d="M25.084,63.485c-0.031-0.087-0.044-0.179-0.068-0.267c-0.024-0.029-0.053-0.05-0.064-0.1 c-0.262-1.162-0.597-2.309-0.728-3.495c-0.026-0.231-0.084-0.452-0.213-0.651c-0.326-0.498-0.583-0.506-0.878,0.014 c-0.222,0.389-0.447,0.463-0.778,0.137c-0.14-0.139-0.385-0.261-0.511-0.143c-0.322,0.307-0.702,0.25-1.068,0.269 c0.113,0.399,0.147,0.813,0.084,1.216c-0.095,0.602,0.13,1.119,0.332,1.646c0.168,0.437,0.535,0.558,0.979,0.503 c0.198-0.023,0.454-0.201,0.536,0.152c0.269-0.459,0.647-0.312,0.952-0.104c0.38,0.262,0.737,0.545,1.162,0.743 c0.213,0.099,0.397,0.28,0.416,0.56c0.006,0.09,0.026,0.153,0.054,0.204c0.002-0.009,0.004-0.017,0.007-0.024 c-0.027-0.062-0.047-0.135-0.057-0.232C25.227,63.766,25.154,63.619,25.084,63.485z"/> <path d="M47.26,66.461c0.009-0.025,0.021-0.047,0.03-0.072c-0.011,0.025-0.026,0.047-0.039,0.071 C47.255,66.46,47.257,66.461,47.26,66.461z"/> <path d="M32.838,53.062c0.375-0.021,0.5-0.122,0.502-0.458c0.173-0.408,0.426-0.784,0.483-1.237 c0.395-0.186,0.786-0.357,1.016-0.783c0.053-0.099,0.145-0.153,0.241-0.192c-0.103,0.026-0.212,0.049-0.327,0.055 c-0.334,0.017-0.476-0.277-0.669-0.464c-0.167-0.161-0.367-0.227-0.564-0.245c-0.25-0.022-0.395-0.141-0.45-0.353 c-0.061-0.227,0.051-0.393,0.257-0.519c0.248-0.151,0.542-0.33,0.451-0.667c-0.043-0.16-0.244-0.277-0.121-0.487 c-0.061,0.292-0.255,0.349-0.522,0.321c-0.188-0.02-0.288-0.158-0.425-0.25c-0.46-0.312-1.131-0.212-1.48,0.213 c-0.721,0.877-1.332,1.074-2.397,0.738c-0.348-0.109-0.698-0.15-1.055-0.137c0.017,0.034,0.039,0.065,0.041,0.11 c0.01,0.052,0.001,0.087,0.004,0.132c0.536,0.208,0.367,0.843,0.612,1.287c0.439-0.419,0.853-0.373,1.277,0.048 c0.153,0.151,0.415,0.192,0.626,0.285c0.189,0.084,0.436,0.14,0.427,0.399c-0.008,0.214-0.226,0.298-0.397,0.363 c-0.239,0.09-0.427-0.044-0.51-0.252c-0.131-0.324-0.3-0.507-0.662-0.33c-0.072,0.035-0.182,0.088-0.188,0.143 c-0.021,0.19,0.118,0.46-0.229,0.466c-0.328,0.006-0.694,0.131-0.97-0.134c-0.319-0.306-0.756-0.31-1.201-0.606 c0.086,0.213,0.126,0.305,0.16,0.399c0.082,0.225,0.591,0.378,0.152,0.689c-0.357,0.253-0.889,0.087-1.089-0.295 c-0.019-0.037-0.037-0.077-0.046-0.117c-0.082-0.36-0.043-0.893-0.478-0.931c-0.162-0.014-0.294,0.048-0.417,0.134 c-0.02,0.096-0.024,0.209-0.015,0.339c0.009,0.127-0.111,0.221-0.155,0.338c-0.106,0.29-0.037,0.487,0.282,0.574 c0.263,0.072,0.518,0.171,0.772,0.266c0.435,0.161,0.487,0.487,0.136,0.802c-0.153,0.138-0.333,0.246-0.44,0.446 c0.798,0.003,0.802,0.003,0.848,0.846c0.019,0.35,0.225,0.527,0.521,0.635c0.284,0.104,0.554,0.235,0.816,0.383 c-0.026-0.608,0.208-0.696,1.002-0.631c0.841,0.07,1.73,0.236,2.43-0.49c0.126-0.131,0.309-0.252,0.51-0.172 c0.245,0.096,0.082,0.334,0.142,0.494c0.005,0.014,0.003,0.023,0.007,0.037C31.753,53.605,32.146,53.1,32.838,53.062z"/> <path d="M35.08,50.392c0.131-0.033,0.25-0.072,0.339-0.105C35.335,50.32,35.203,50.342,35.08,50.392z"/> <path d="M31.778,54.98c0.092-0.115,0.064-0.201,0.025-0.284c-0.026,0.31-0.205,0.555-0.54,0.75 c-0.121,0.071-0.194,0.218-0.244,0.387c0.264-0.106,0.466-0.164,0.55,0.022C31.559,55.547,31.567,55.243,31.778,54.98z"/> <path d="M18.561,23.822c-0.052,0.024-0.103,0.051-0.147,0.09v0.001h0.001C18.458,23.873,18.509,23.847,18.561,23.822z"/> <path d="M47.337,58.283c-0.004-0.021-0.006-0.044-0.008-0.064c-0.001,0.004-0.003,0.004-0.004,0.01 C47.322,58.264,47.32,58.278,47.337,58.283z"/> <path d="M47.35,58.287c-0.009,0.001-0.008-0.004-0.013-0.005c0.003,0.017,0.001,0.036,0.006,0.052 C47.331,58.379,47.434,58.282,47.35,58.287z"/> <path d="M22.715,62.781c-0.001-0.008-0.006-0.008-0.007-0.016h-0.001C22.713,62.768,22.715,62.783,22.715,62.781z"/> <path d="M44.492,34.422c0.036-0.052,0.067-0.099,0.058-0.11c-0.547-0.65,0.271-1.668-0.609-2.23 c-0.291-0.185-0.157-0.292,0.093-0.423c0.221-0.116,0.748-0.007,0.63-0.31c-0.158-0.404-0.104-0.976-0.58-1.207 c-0.382-0.184-0.795-0.634-1.184,0.103c-0.115,0.217-0.689,0.101-0.872,0.487c-0.06,0.575-0.422,0.974-0.767,1.382 c0.012,0.02,0.027,0.032,0.037,0.054c0.091,0.302-0.043,0.582-0.107,0.86c-0.076,0.329-0.325,0.471-0.669,0.428 c-0.674-0.083-0.948,0.227-0.78,0.896c0.044,0.179,0.163,0.345-0.001,0.518c0.315,0.12,0.605,0.136,0.771-0.35 c0.185-0.141,0.392-0.21,0.625-0.193c0.579,0.273,0.053,0.522-0.017,0.781c-0.035,0.014-0.069,0.027-0.104,0.041 c-0.245,0.068-0.392,0.19-0.491,0.339c0.074,0.281,0.058,0.583,0.051,0.881c0-0.002,0.001-0.003,0.002-0.005 c0.11-0.535,0.532-0.813,1.062-0.742c0.41,0.055,0.658,0.498,0.603,1.058c-0.034,0.346-0.001,0.707-0.369,0.987 c0.472,0.043,0.366-0.302,0.365-0.438c-0.006-0.451,0.079-0.859,0.356-1.212c0.14-0.178,0.128-0.325,0.028-0.515 c-0.231-0.441-0.146-0.854,0.298-0.992C43.425,34.354,43.967,34.084,44.492,34.422z"/> <path d="M46.287,73.874c-0.051-0.021-0.104-0.034-0.154-0.051c-0.044,0.006-0.085,0.021-0.129,0.024 c-0.146,0.024-0.281,0.072-0.405,0.152c0.004,0.041,0.014,0.08,0.016,0.123c0.007,0.203,0.11,0.367,0.298,0.443 c0.276,0.109,0.619,0.369,0.821-0.025C46.926,74.165,46.597,73.988,46.287,73.874z"/> <path d="M36.714,57.172c-0.05,0.024-0.1,0.039-0.149,0.051c0.02,0.002,0.037,0,0.057,0.004c0.328,0.045,0.697,0.119,0.939,0.324 c0.327,0.277,0.638,0.323,0.984,0.203c-0.091-0.052-0.183-0.107-0.25-0.183C37.857,57.08,37.389,56.842,36.714,57.172z"/> <path d="M38.545,57.754c0.007,0.004,0.013,0.01,0.02,0.014c0.025,0.013,0.037,0.015,0.041-0.002 c0.001-0.004,0.002-0.002,0.003-0.006c-0.01,0-0.021,0-0.042-0.013C38.559,57.75,38.552,57.75,38.545,57.754z"/> <path d="M44.375,62.244c-0.05-0.268-0.104-0.529-0.208-0.831c-0.143,0.578-1.08,0.785-0.809,1.364 c0.21,0.447,0.063,1.104,0.604,1.395c0.105-0.328,0.448-0.475,0.679-0.617c0.229-0.145,0.542,0.319,0.911,0.349 c0.203,0.016,0.107,0.267,0.082,0.428c-0.033,0.204-0.05,0.412-0.074,0.618c0.26,0.354,0.667,0.385,1.039,0.49 c0.172-0.082,0.325-0.199,0.527-0.086c0.343,0.262,0.272,0.606,0.196,0.953c-0.011,0.028-0.021,0.055-0.032,0.082 c0.009-0.021,0.021-0.037,0.029-0.059c0.186-0.168,0.32-0.012,0.469,0.062c0.203-0.517,0.318-1.065,0.55-1.571 c-0.366-0.298-0.595-0.71-0.839-1.095c-0.288-0.451-0.683-0.603-1.162-0.621c-0.518-0.018-0.956-0.178-1.291-0.559 C44.656,62.821,44.452,62.656,44.375,62.244z"/> <path d="M55.195,30.406c-0.105,0.056-0.281,0.173-0.426,0.082c-0.002,0.002-0.006,0.004-0.008,0.007 c-0.039,0.019-0.08,0.024-0.119,0.031c-0.025,0.345-0.021,0.67,0.463,0.801c0.143,0.038,0.371,0.209,0.424,0.133 c0.254-0.366,0.736-0.207,1.008-0.486c0.092-0.095,0.061-0.214-0.055-0.252C56.064,30.583,55.734,30.128,55.195,30.406z"/> <path d="M51.724,33.743c-0.244-0.061-0.448-0.162-0.604-0.358c0.262,0.2,0.229,0.379-0.021,0.586 c-0.193,0.161-0.388,0.378-0.235,0.651c0.173,0.309,0.491,0.302,0.782,0.216c0.271-0.079,0.71-0.108,0.713-0.397 C52.362,34.146,52.084,33.833,51.724,33.743z"/> <path d="M31.904,56.672c-0.185-0.021-0.264-0.119-0.299-0.262c-0.002,0.363,0.061,0.745,0.57,0.879 c0.146,0.037,0.135,0.271,0.148,0.294c-0.037-0.144,0.064-0.508,0.217-0.786C32.325,56.895,32.114,56.699,31.904,56.672z"/> <path d="M32.927,56.436c0.215-0.043,0.407,0.064,0.533,0.24c0.063,0.088,0.131,0.146,0.203,0.193 c-0.058-0.059-0.113-0.131-0.162-0.242C33.395,56.385,33.141,56.316,32.927,56.436z"/> <path d="M32.54,56.797c0.065-0.029,0.13-0.084,0.196-0.182c0.055-0.081,0.121-0.141,0.191-0.18 c-0.025,0.006-0.048,0.004-0.073,0.013C32.743,56.49,32.632,56.627,32.54,56.797z"/> <path d="M31.569,55.855c0.003,0.107,0.009,0.217,0.009,0.324c0,0.09,0.01,0.164,0.027,0.23c0-0.074,0.003-0.148,0.006-0.219 C31.618,56.034,31.601,55.928,31.569,55.855z"/> <path d="M53.556,0C24.025,0,0,24.025,0,53.557c0,29.531,24.025,53.556,53.556,53.556s53.556-24.024,53.556-53.556 C107.112,24.025,83.087,0,53.556,0z M0.75,53.557c0-17.528,8.591-33.08,21.776-42.689c-2.045,1.556-4.022,3.283-5.928,5.188 C6.204,26.449,1.01,38.948,1.01,53.557c0,14.647,5.194,27.158,15.589,37.533c1.822,1.817,3.713,3.467,5.664,4.967 C9.225,86.432,0.75,70.969,0.75,53.557z M12.111,80.109c0.366,0.035,0.508,0.324,0.583,0.629 c-0.009,0.219-0.046,0.469-0.275,0.436c-0.355-0.053-0.433-0.416-0.535-0.699C11.829,80.322,11.891,80.088,12.111,80.109z M14.18,79.454c1.317,0.354,1.956,1.386,2.466,2.535c0.167,0.377,0.172,0.762-0.157,1.037c-0.337,0.282-0.674,0.09-0.967-0.134 C14.363,82.016,13.912,80.857,14.18,79.454z M36.906,94.71c-0.225-0.022-0.52-0.063-0.491-0.34 c0.027-0.265,0.357-0.229,0.567-0.274c0.208-0.043,0.392,0.063,0.386,0.293C37.361,94.658,37.124,94.682,36.906,94.71z M44.55,98.031c-0.127-0.084-0.253-0.168-0.38-0.254c-0.114-0.162-0.286-0.238-0.457-0.32c-0.296-0.145-0.355-0.402-0.281-0.689 c0.075-0.293,0.35-0.256,0.567-0.282c0.142-0.021,0.292,0.03,0.436,0.016c0.857-0.09,1.059,0.021,1.107,0.632 C45.588,97.71,45.303,97.973,44.55,98.031z M46.678,91.066c-0.129,0.082-0.196,0.129-0.115,0.271l0.001,0.004 c-0.784,0.479-1.594,0.807-2.52,0.416c-0.193-0.082-0.398-0.252-0.591-0.148c-0.593,0.311-0.812-0.066-0.968-0.508 c-0.15-0.422-0.534-0.689-0.721-1.117c0.456-0.143,0.824,0.271,1.079,0.234c0.576-0.084,1.251,0.018,1.731-0.438 c0.333-0.317,0.477-0.399,0.593,0.168c0.133,0.653,0.793,0.912,1.404,0.631c0.041,0.002,0.083,0.002,0.124,0.002 C46.919,90.751,46.879,90.939,46.678,91.066z M51.155,84.361c-0.261-0.006-0.449-0.119-0.444-0.408 c0.004-0.213,0.131-0.371,0.347-0.363c0.29,0.008,0.399,0.252,0.512,0.461C51.525,84.303,51.356,84.365,51.155,84.361z M63.953,105.328c7.76-2.135,14.667-6.872,20.714-14.238c8.511-10.375,12.769-22.886,12.769-37.533 c0-11.603-2.696-21.869-8.063-30.812c-0.042,0.01-0.081,0.021-0.128,0.029c0.004,0.125,0.01,0.25,0.016,0.374 c-0.051,0.139-0.104,0.275-0.147,0.415c-0.099,0.314-0.244,0.438-0.522,0.16c-0.119-0.117-0.285-0.277-0.431-0.13 c-0.156,0.158,0.041,0.307,0.146,0.422c0.248,0.275,0.717,0.46,0.34,0.958c-0.014,0.018,0.014,0.099,0.039,0.109 c0.688,0.257,0.766,1.233,1.588,1.343c0.285,0.038,0.381,0.229,0.248,0.512c-0.107,0.229-0.096,0.475,0.104,0.637 c0.23,0.187,0.242-0.128,0.361-0.203c0.086-0.053,0.176-0.041,0.219,0.041c0.119,0.222,0.285,0.485,0.098,0.703 c-0.268,0.314-0.346,0.587-0.111,0.953c0.111,0.174,0.058,0.314-0.215,0.288c-0.424-0.042-0.438,0.307-0.504,0.587 c-0.09,0.378,0.187,0.349,0.431,0.444c0.309,0.121,0.416,0.479,0.602,0.75c0.302,0.44,0.302,0.955,0.486,1.417 c0.08,0.198,0.058,0.418-0.152,0.564c-0.442,0.31-0.549,0.778-0.561,1.273c-0.019,0.712-0.183,1.383,0.139,2.14 c0.271,0.642,0.779,0.712,1.205,0.947c0.799,0.441,1.08,0.835,0.858,1.712c-0.086,0.341-0.09,0.64,0.011,0.974 c0.146,0.485,0.409,0.963,0.127,1.5c-0.078,0.152,0.063,0.318,0.194,0.433c0.623,0.536,0.625,1.19,0.363,1.896 c-0.029,0.054-0.07,0.095-0.127,0.121c-0.385-0.035-0.365-0.474-0.627-0.638c-0.094,0.09-0.115,0.224-0.049,0.287 c0.814,0.756,0.732,1.739,0.533,2.648c-0.174,0.804-0.875,1.257-1.646,1.533c-0.242-0.029-0.311-0.204-0.297-0.401 c0.043-0.582-0.328-0.868-0.764-1.118c-0.961-0.551-1.014-0.707-0.67-1.771c0.115-0.357,0.262-0.707,0.307-1.085 c0.023-0.19,0.074-0.379,0.283-0.446c0.248-0.08,0.314,0.162,0.451,0.276c-0.002-0.011,0.01-0.017-0.006-0.029 c-0.369-0.275-0.104-0.63-0.119-0.949c-0.004-0.086-0.012-0.171-0.016-0.257c0.164-0.303,0.176-0.609-0.088-0.849 c-0.189-0.175-0.104-0.381-0.146-0.572c-0.002-0.024-0.01-0.04-0.012-0.062c-0.24-0.025-0.479-0.047-0.711-0.1 c-0.166-0.038-0.31-0.108-0.414-0.216c-0.054,0.001-0.107,0.006-0.16,0.019c-0.049,0.03-0.1,0.049-0.152,0.068 c-0.078-0.011-0.135,0.012-0.191,0.037c-0.049,0.233-0.061,0.473-0.053,0.717c-0.205-0.042-0.324-0.169-0.412-0.329 c-0.035,0.019-0.062,0.046-0.105,0.051c-0.541-0.083-0.924,0-0.975,0.681c-0.027,0.369-0.326,0.503-0.627,0.212 c-0.568-0.55-1.221-0.87-2.018-0.873c-0.17,0-0.244-0.146-0.336-0.259c-0.271-0.307-0.465-0.626-0.189-1.031 c0.041-0.061,0.09-0.116,0.137-0.172c-0.047-0.097-0.094-0.193-0.153-0.279c-0.229-0.325-0.527-0.347-0.777-0.054 c-0.196,0.233-0.239,0.744-0.637,0.598c-0.384-0.142-0.345-0.62-0.336-0.999c0.002-0.063,0.006-0.125,0.008-0.187 c0.063-0.183,0.233-0.191,0.39-0.23c-0.011-0.007-0.023-0.005-0.031-0.013c-0.01-0.034-0.008-0.068-0.016-0.103 c-0.406,0.164-0.947,0.052-1.236-0.299c0.008-0.195-0.066-0.368-0.16-0.532c-0.123-0.215-0.314-0.428-0.08-0.674 c0.234-0.248,0.529-0.414,0.873-0.442c0.297-0.024,0.26,0.263,0.34,0.444c0.078-0.176,0.117-0.318,0.131-0.443 c-0.172-0.529-0.459-0.645-1.195-0.514c-0.467-0.27-0.889-0.607-1.481-0.615c-0.397-0.005-0.347-0.387-0.39-0.672 c-0.096-0.655-0.184-1.313-0.342-1.958c-0.006,0.207-0.018,0.413-0.053,0.617c-0.035,0.192-0.02,0.398-0.301,0.479 c-0.268,0.077-0.381-0.052-0.514-0.214c-0.031-0.09-0.058-0.183-0.095-0.266c-0.235,0-0.475-0.002-0.713,0.005 c-0.123,0.004-0.325,0.011-0.354,0.075c-0.186,0.44-0.391,0.521-0.756,0.159c-0.154-0.153-0.244,0.077-0.313,0.188 c-0.218,0.343-0.427,0.524-0.736,0.079c-0.122-0.176-0.348-0.226-0.559-0.262c-0.041-0.003-0.082-0.005-0.123-0.005 c-0.358,0.34-0.772,0.487-1.267,0.376c-0.653-0.089-0.588,0.377-0.358,0.636c0.444,0.51,0.03,1.214,0.481,1.685 c0.01,0.011,0.006,0.047-0.004,0.061c-0.76,1.025,0.31,1.776,0.398,2.673c0.121,0.044,0.242,0.089,0.363,0.134 c0.387,0.225,0.627,0.543,0.66,1.007c0.008,0.121,0.043,0.281,0.125,0.348c0.764,0.617,0.631,1.637,1.09,2.389 c0.102,0.166,0.086,0.478,0.395,0.346c0.234-0.1,0.156-0.308,0.041-0.479c-0.076-0.116-0.117-0.235,0.018-0.33 c0.148-0.104,0.244,0.036,0.314,0.119c0.629,0.736,1.32,0.679,2.16,0.339c0.404-0.164,0.902-0.594,1.428-0.142 c0.082,0.07,0.184-0.048,0.256-0.128c0.113-0.125,0.051-0.467,0.314-0.375c0.223,0.077,0.125,0.368,0.145,0.568 c0,0.012,0,0.024,0,0.036c0.039,0,0.078,0,0.117-0.001c0.318,0.109,0.68,0.084,0.963,0.299c0.025,0.035,0.031,0.076,0.039,0.117 c0.037-0.021,0.074-0.039,0.113-0.057c0.135-0.133,0.34-0.162,0.5-0.256c0.184-0.019,0.402-0.048,0.408,0.217 c0.006,0.281,0.121,0.5,0.291,0.698c0.16,0.186,0.096,0.374-0.031,0.499c-0.293,0.289-0.119,0.438,0.127,0.591 c0.527,0.529,0.496,1.357,1.012,1.892c0.01,0.285,0.123,0.541,0.314,0.733c0.43,0.436,0.436,1.084,0.826,1.549 c0.174,0.205-0.076,0.424-0.31,0.503c-0.26,0.088-0.528,0.089-0.797-0.005c-0.146-0.052-0.312-0.259-0.442-0.101 c-0.15,0.178,0.063,0.333,0.162,0.484h-0.005c-0.26,0.197,0.023,0.573-0.252,0.765l-0.004,0.001 c-0.174,0.153-0.387,0.231-0.575,0.083c-0.365-0.285-0.802-0.282-1.197-0.245c-0.609,0.056-1.088-0.356-1.666-0.356 c-0.068,0-0.127-0.05-0.154-0.095c-0.404-0.658-1.09-0.989-1.646-1.468c-0.336-0.289-0.518-0.801-0.371-1.395 c0.189-0.759,0.342-1.541,0.396-2.328c-0.056-0.062-0.104-0.129-0.181-0.168c-0.178-0.137-0.387-0.148-0.598-0.157 c-0.139-0.006-0.246-0.053-0.342-0.113c-0.131-0.043-0.262-0.098-0.395-0.166c-0.635-0.326-0.814-0.188-0.851,0.522 c-0.008,0.146-0.008,0.295-0.028,0.44c-0.037,0.271-0.174,0.501-0.445,0.55c-0.287,0.051-0.389-0.216-0.473-0.423 c-0.244-0.596-0.652-0.959-1.31-1.036c-0.138-0.017-0.287-0.089-0.396-0.18c-0.375-0.316-0.692-0.059-0.723,0.224 c-0.064,0.619-0.83,0.429-0.955,0.947c-0.02,0.087-0.227-0.07-0.201-0.199c0.072-0.377-0.061-0.651-0.354-0.878 c-0.057-0.044-0.111-0.16-0.092-0.217c0.232-0.708-0.438-0.579-0.73-0.757c-0.346-0.21-0.691-0.136-0.898,0.308 c-0.139-0.269-0.059-0.501-0.086-0.724c-0.256-0.248-0.082-0.52,0.021-0.734c0.08-0.172,0.125-0.273-0.019-0.405 c-0.004-0.042-0.006-0.083-0.01-0.123c0.402-0.206,0.851-0.005,1.26-0.135c0.002-0.038,0.005-0.075,0.005-0.112 c-0.355-0.182-0.574-0.523-0.882-0.762c-0.039-0.003-0.078-0.006-0.116-0.008c-0.285-0.271-0.521-0.583-0.731-0.912 c0,0.217-0.248,0.327-0.48,0.412c-0.369,0.133-0.73,0.213-1.029,0.525c-0.223,0.234-0.551,0.076-0.807-0.08 c-0.615-0.379-0.965-0.328-1.506,0.18c-0.176,0.166-0.332,0.399-0.629,0.386c-0.871,0.042-0.871,0.042-0.867-0.792 c0-0.172-0.104-0.454-0.223-0.322c-0.423,0.462-0.595-0.024-0.855-0.155c-0.148-0.075-0.287-0.169-0.43-0.255 c-0.316,0.021-0.666-0.074-0.896,0.252c-0.381,0.641-0.379,0.639-0.854,0.006c-0.072-0.096-0.166-0.2-0.273-0.242 c-0.42-0.164-0.469-0.385-0.146-0.694c0.15-0.144,0.287-0.383,0.053-0.462c-0.768-0.26-0.778-1.3-1.647-1.486 c-0.373-0.08-0.041-0.496,0.024-0.753c-0.717-0.014-1.364-0.301-2.057-0.198c-0.197,0.029-0.271-0.135-0.289-0.333 c-0.045-0.505,0.389-0.715,0.644-1.022c0.092-0.113,0.317,0.038,0.356,0.23c0.043,0.21,0.152,0.235,0.314,0.15 c0.092-0.047,0.221-0.099,0.244-0.175c0.059-0.192-0.139-0.216-0.252-0.301c-0.322-0.245-0.807-0.346-0.912-0.792 c-0.02-0.008-0.039-0.015-0.057-0.022c-0.058-0.008-0.113-0.014-0.172-0.02c-0.099-0.077-0.17-0.157-0.228-0.24 c-0.063-0.027-0.119-0.07-0.146-0.163c-0.063-0.225,0.086-0.387,0.246-0.525c0.043-0.037,0.088-0.073,0.131-0.11 c0.029-0.096,0.053-0.194,0.076-0.292c-0.549,0.246-0.934,0.664-1.176,1.239c-0.053,0.125-0.188,0.195-0.328,0.124 c0.193,0.156,0.383,0.342,0.586,0.511c0.096,0.08,0.195,0.169,0.248,0.283c0.08,0.168,0.305,0.446,0.119,0.514 c-0.623,0.228-0.148,1.218-0.908,1.257c-0.43,0.022-0.541,0.173-0.383,0.541c0.117,0.273,0.053,0.553,0.064,0.829 c0.062,0,0.127,0.013,0.186,0.049c0.348,0.216,0.709,0.458,0.734,0.933c0.023,0.429-0.146,0.706-0.578,0.884 c-0.699,0.29-1.072,0.885-1.26,1.603c-0.014,0.004-0.025,0.001-0.039,0.002c0.34,0.806-0.504,1.961-1.375,1.758 c-0.229-0.053-0.459-0.034-0.689-0.003c-0.81,0.11-1.097,0.798-0.605,1.461c0.22,0.297,0.527,0.461,0.869,0.596 c0.646,0.255,0.701,0.467,0.324,1.047c-0.211,0.326-0.092,0.587,0.311,0.763c0.193,0.084,0.408,0.139,0.531,0.37 c0.062,0.111,0.176,0.228,0.076,0.305c-0.277,0.215-0.551,0.42-0.799,0.678c-0.15,0.158-0.369,0.042-0.566-0.031 c0,0.004,0,0.008,0,0.012c0.006,0.077-0.006,0.151-0.006,0.227c0.129,0.333,0.295,0.29,1.006,0.093 c0.063,0.157,0.207,0.234,0.328,0.331c0.34,0.269,0.32,0.583-0.072,1.054c-0.196,0.108-0.452,0.13-0.583,0.34 c-0.105,0.168-0.412,0.226-0.33,0.482c0.076,0.236,0.367-0.104,0.525,0.235c-0.467,0.081-0.887,0.291-1.356,0.323 c-0.084,0.09-0.178,0.177-0.268,0.251c-0.396,0.033-0.813,0.349-1.19-0.059c-0.005-0.07,0.001-0.136,0.003-0.203 c-0.396-0.073-0.795,0.013-1.192,0.022c-0.039,0.078-0.079,0.156-0.127,0.25c-0.346,0.096-0.681,0.209-0.884,0.539 c-0.033,0.055-0.079,0.131-0.126,0.133c-0.779,0.049-1.512,0.615-2.325,0.274c-0.001,0.003-0.003,0.006-0.004,0.009 c0.012,0.029,0.026,0.06,0.036,0.085c0.19,0.478,0.54,0.617,0.997,0.544c0.652-0.103,1.067,0.128,1.221,0.784 c0.123,0.404,0.037,0.724-0.332,0.98c-0.442,0.309-0.776,0.809-1.423,0.707c-0.22-0.035-0.233,0.143-0.244,0.301 c0,0.26-0.231,0.334-0.382,0.473c-0.27,0.103-0.384,0.35-0.512,0.572c-0.268,0.469-0.233,0.537,0.298,0.59 c0.398,0.041,0.744,0.252,1.14,0.314c0.317,0.051,0.22,0.348,0.243,0.598c0.039-0.293,0.279-0.246,0.469-0.27 c0.609-0.072,1.211,0.09,1.821,0.047c0.185-0.013,0.356,0.092,0.347,0.285c-0.042,0.854,0.633,1.139,1.193,1.453 c1.048,0.59,1.064,0.559,1.288,1.672c0.283-0.344,0.291-0.805,0.646-1.081c0.453-0.353,0.605-0.349,0.801,0.179 c0.068,0.188,0.286,0.328,0.202,0.57c-0.004,0.09-0.002,0.18-0.023,0.268c-0.01,0.006-0.016,0.017-0.025,0.021 c0.518,0.216,0.834,0.58,1.078,1.164c0.396,0.943,0.354,1.794,0.006,2.689c-0.113,0.289-0.188,0.627-0.547,0.627 c0,0.002,0.002,0.004,0.002,0.006c-0.01,0.096-0.006,0.187-0.01,0.279c0.143,0.37,0.129,0.821,0.533,1.061 c0.197,0.115,0.369,0.271,0.553,0.408c0.693,0.022,1.27,0.234,1.59,0.916c0.145,0.304,0.408,0.438,0.752,0.488 c0.41,0.061,0.834,0.117,1.191,0.367c-0.1,0.826-0.072,1.072,0.293,1.973c0.148,0.367,0.225,0.713-0.037,1.057 c0,0.025-0.002,0.054-0.002,0.08c0.041-0.004,0.08-0.014,0.121,0.002c0.311,0.543,0.25,0.98-0.34,1.455 c-0.406,0.328-0.732,0.752-1.209,0.998c-0.297,0.152-0.34,0.33-0.144,0.652c0.166,0.273,0.636,0.625,0.056,0.979 c-0.123,0.111-0.269,0.209-0.367,0.339c-0.361,0.461-0.797,0.633-1.381,0.476c-0.551-0.146-1.074-0.074-1.525,0.325 c-0.254,0.226-0.418,0.42,0.064,0.537c0.174,0.041,0.354,0.063,0.303,0.299c-0.045,0.19-0.217,0.265-0.391,0.248 c-0.205-0.021-0.406-0.088-0.609-0.135c-0.313-0.072-0.621-0.052-0.76,0.269c-0.215,0.495-0.611,0.475-1.001,0.377 c-0.511-0.129-1.016-0.265-1.546-0.185c-0.307,0.047-0.439-0.33-0.739-0.276c-0.24-0.025-0.465-0.135-0.695-0.213 c0.024,0.01,0.052,0.018,0.075,0.03c0.2,0.103,0.42,0.176,0.604,0.313c0.145,0.231,0.233,0.492,0.314,0.754 c0.009,0.176,0.077,0.303,0.27,0.342c0.169,0.033,0.228,0.148,0.213,0.316c-0.018,0.186-0.147,0.237-0.295,0.271 c-0.203,0.047-0.399,0.123-0.601,0.172c-0.309,0.073-0.523,0.181-0.529,0.56c-0.004,0.229-0.194,0.401-0.363,0.563 c-0.147,0.142-0.356,0.303-0.224,0.524c0.12,0.201,0.337,0.07,0.516,0.033c0.489-0.102,1.003-0.148,1.243-0.699 c0.034-0.08,0.147-0.059,0.23-0.059c0.548-0.092,0.881,0.17,1.049,0.666c0.207,0.607-0.052,0.938-0.708,0.986 c-0.613,0.045-1.157,0.346-1.722,0.559c-0.253,0.096-0.313,0.42-0.167,0.592c0.639,0.752,0.313,1.424-0.102,2.105 c-0.084,0.082-0.168,0.166-0.251,0.248c-0.293-0.287-0.628-0.484-1.051-0.498c-0.741-0.023-0.962-0.713-1.395-1.121 c-0.15-0.141,0.1-0.225,0.226-0.27c0.359-0.125,0.368-0.351,0.2-0.637c-0.248-0.423-0.41-0.869-0.382-1.369 c-0.39-0.093-0.641-0.211-0.231-0.625c0.23-0.232,0.509-0.494,0.141-0.877c-0.176-0.185-0.12-0.455,0.107-0.593 c0.15-0.091,0.285-0.208,0.43-0.308c-0.354,0-0.677-0.053-0.853-0.551c-0.107-0.307-0.541-0.276-0.85-0.162 c-0.227,0.086-0.531,0.179-0.507,0.484c0.025,0.344,0.262,0.57,0.61,0.627c0.198,0.033,0.348,0.133,0.501,0.246 c0.328,0.24,0.302,0.477-0.077,0.568c-0.363,0.088-0.619,0.219-0.687,0.607c0,0.002-0.039,0.002-0.055-0.006 c-0.018-0.009-0.029-0.029-0.044-0.043c-0.822,0.036-0.854,0.073-0.877,1.004c0.001,0.041,0.002,0.082,0.004,0.123 c0.267-0.056,0.504,0.063,0.75,0.129c0.392,0.896,0.334,0.975-0.753,1.012c0.001,0.123,0.003,0.248,0.005,0.371 c0.476,0.084,0.855,0.125,0.708,0.856c-0.101,0.498,0.084,1.138,0.701,1.425c0.178,0.082,0.368,0.2,0.268,0.422 c-0.1,0.223-0.25-0.056-0.374-0.019c-0.694,0.213-1.417-0.174-2.122,0.153c-0.462,0.217-1.24,0.041-1.637-0.25 c-0.006-0.004-0.014-0.008-0.02-0.014c-0.073-0.056-0.137-0.113-0.176-0.176c-0.002-0.039-0.004-0.078-0.007-0.119 c-0.042,0.094-0.117,0.184-0.122,0.279c-0.052,1.096-0.268,1.277-1.396,1.148c-0.082-0.01-0.163-0.027-0.244-0.043 c-0.152-0.498-0.502-0.73-1.01-0.754c-0.406-0.029-0.786-0.117-1.017-0.502c-0.475-0.209-0.952-0.412-1.421-0.631 c-0.088-0.041-0.215-0.148-0.209-0.216c0.045-0.606-0.382-0.635-0.809-0.731c-0.579-0.133-0.875-0.685-1.331-1.008 c-0.171-0.121-0.06-0.367,0.04-0.521c0.22-0.339,0.106-0.562-0.161-0.812c-0.37-0.346-0.545-1.496-0.347-1.949 c0.138-0.312,0.438-0.271,0.695-0.332c-0.422-0.211-0.668-0.53-0.749-1.014c-0.07-0.426-0.512-0.592-0.836-0.32 c-0.168,0.142-0.309,0.23-0.494,0.121c-0.289-0.172-0.401,0.021-0.452,0.228c-0.052,0.213,0.044,0.371,0.31,0.342 c0.333-0.036,0.329,0.125,0.251,0.386c-0.277,0.922-0.269,0.922-1.233,0.682c-0.436-0.107-0.665,0.059-0.586,0.52 c0.08,0.465,0.24,0.928,0.079,1.398c-0.125,0.363-0.234,0.762-0.785,0.426c-0.39-0.24-0.55,0.002-0.5,0.379 c0.039,0.301-0.021,0.449-0.352,0.406c-0.193-0.023-0.295,0.125-0.419,0.24c-0.517,0.471-0.584,0.445-0.734-0.256 c-0.017-0.084-0.036-0.166-0.054-0.248c-0.182-0.56-0.621-0.963-0.888-1.479c-0.283-0.545-0.897-0.685-1.509-0.664 c-0.107,0.229-0.238,0.438,0.022,0.679c0.171,0.155,0.224,0.396,0.175,0.746c-0.744-0.607-1.562-0.908-2.476-0.916 c-0.477-0.146-0.938-0.402-1.465-0.207c-0.054,0.021-0.155,0.026-0.181-0.004c-0.484-0.589-1.256-0.642-1.878-0.951 c-0.783-0.392-1.266-1.115-2.028-1.494c-0.212-0.105-0.352-0.188-0.619-0.109c-0.338,0.102-0.741-0.051-0.813-0.42 c-0.186-0.957-1.049-1.043-1.694-1.338c-0.738-0.34-1.025-0.738-0.788-1.543c-0.291-0.553-0.528-1.129-0.734-1.721 c-0.117-0.334-0.304-0.646-0.652-0.808c-0.562-0.131-0.914-0.502-1.11-1.021c-0.225-0.59-0.791-0.711-1.267-0.946 c-0.183-0.093-0.336,0-0.292,0.243c0.022,0.125,0.071,0.244,0.088,0.367c0.026,0.189,0.053,0.418-0.189,0.467 c-0.244,0.048-0.349-0.18-0.338-0.36c0.038-0.646-0.286-1.153-0.553-1.698c-0.162-0.33-0.339-0.443-0.684-0.351 c-0.576,0.155-0.978-0.093-1.251-0.586c-0.235-0.427-0.485-0.832-0.937-1.072c-0.397-0.211-0.113-0.563-0.158-0.853 c-0.002-0.082-0.005-0.162-0.008-0.244c-0.536-0.301-0.615-0.859-0.766-1.374c-0.087-0.3-0.157-0.604-0.234-0.905 c-0.202-0.927-0.927-1.641-1.058-2.598c-0.015-0.107-0.104-0.205-0.221-0.168c-0.231,0.074-0.129,0.257-0.123,0.42 c0.026,0.754,0.157,1.5,0.219,2.251c-0.129-0.199-0.26-0.396-0.393-0.591c-0.768-4.006-1.23-8.045-1.032-12.135 c0.185-3.829,0.752-7.598,1.698-11.328c0.592-2.336,1.333-4.596,2.284-6.798l0,0c0.111-0.453,0.281-0.884,0.502-1.295 c0.37-0.429,0.48-0.985,0.714-1.48c0.783-1.651,1.671-3.237,2.636-4.776c0.35-0.105,0.69-0.256,1.003-0.487 c-0.537,0.828-1.078,1.653-1.593,2.496c-0.351,0.574-0.543,1.208-0.829,1.807c-0.292,0.064-0.366,0.256-0.374,0.539 c-0.007,0.266-0.124,0.395-0.321,0.373c0.222,0.248,0.275,0.618,0.494,0.916c0.296-0.35,0.658-0.604,0.856-1.001 c0.43-0.864,1.084-1.566,1.698-2.29c0.595-0.7,1.134-1.443,1.707-2.149c0.657-0.811,1.369-1.628,2.235-2.262 c0.301,0.084,0.562-0.004,0.791-0.197c0.159-0.133,0.333-0.24,0.518-0.333c0.871-0.444,1.104-0.366,1.448,0.484 c-0.15,0.637-0.533,1.15-0.946,1.633c-0.673,0.788-1.495,1.451-1.724,2.561c-0.114,0.552-0.626,0.661-1.51,0.444 c0.482,0.994,0.389,1.918-0.269,2.793c-0.137,0.183-0.233,0.352-0.493,0.239c-0.003-0.003-0.006-0.007-0.009-0.011 c-0.136,0.464-0.253,0.92-0.742,1.217c-0.321,0.195-0.33,0.86-0.95,0.643c-0.016,0.08-0.052,0.162-0.044,0.24 c0.016,0.181,0.104,0.533,0.184,0.462c0.408-0.354,0.688,0.62,1.052,0.068c0.171-0.259,0.444-0.291,0.708-0.355 c0.704-0.173,0.772-0.341,0.39-0.97c-0.093-0.152-0.182-0.414,0.024-0.4c0.601,0.038,0.757-0.4,1.012-0.964 c0.153,0.719,0.672,1.079,0.686,1.683c0.007,0.278,0.161,0.375,0.422,0.267c0.194-0.08,0.383-0.169,0.574-0.255 c-0.037-0.002-0.074-0.004-0.11-0.007c-0.346-0.302-0.714-0.583-0.384-1.135c0.063-0.104-0.066-0.315-0.085-0.479 c-0.083-0.694-0.115-1.38,0.458-1.918c0.087-0.041,0.174-0.082,0.261-0.123c0.638-0.479,1.104-1.126,1.648-1.695 c0.295-0.308,0.546-0.549,1.058-0.445c0.457,0.092,0.947-0.04,1.325-0.388c-0.141-1.186,0.562-2.051,1.15-2.946 c0.413-0.627,0.895-1.207,1.347-1.807c0.075-0.1,0.172-0.104,0.278-0.054c0.023-0.643,0.441-0.736,0.979-0.784 c1.003-0.09,1.973-0.324,2.868-0.957c-0.285-0.217-0.648-0.117-0.817-0.393c-0.012-0.018-0.027-0.034-0.034-0.054 c-0.258-0.694,0.421-0.868,0.715-1.246c0.2-0.256,0.497-0.411,0.833-0.186c0.322,0.216,0.312,0.771-0.043,1.111 c-0.163,0.156-0.385,0.25-0.581,0.372c0.643,0.308,1.182-0.103,1.741-0.28c0.757-0.241,1.484-0.579,2.297-0.603 c0.321,0.006,0.596-0.147,0.884-0.254c0.508-0.228,0.889,0.138,0.997,0.46c0.138,0.414,0.352,0.375,0.63,0.357 c0.243-0.015,0.458,0.033,0.646,0.19c0.139,0.027,0.245,0.089,0.257,0.249c0.294,0.002,0.587,0.005,0.881,0.008 c0.034-0.023,0.065-0.053,0.103-0.066c0.328-0.116,0.319-0.692,0.709-0.621c0.325,0.059,0.585,0.358,0.87,0.557 c0.067,0.046,0.142,0.082,0.21,0.127c0.125,0.001,0.25,0.002,0.375,0.002c0.295,0.216,0.59,0.208,0.883-0.003l0.001-0.001 c0.271-0.162,0.48-0.451,0.875-0.338c0.341,0.098,0.593,0.234,0.669,0.619c0.08,0.406-0.305,0.361-0.536,0.548 c0.547,0.282,1.219-0.066,1.636,0.447c0.012,0.196,0.095,0.316,0.313,0.285c0.308-0.045,0.559,0.127,0.832,0.214 c0.252,0.039,0.458,0.361,0.755,0.121c0.004-0.25,0.008-0.499,0.012-0.748c0.053-0.041,0.087-0.042,0.115-0.032 c-0.007-0.136-0.102-0.262-0.062-0.405l0,0c-0.085-0.086-0.092-0.252-0.19-0.325c-0.41-0.207-0.508-0.469-0.163-0.831 c0.083-0.088,0.172-0.21,0.181-0.324c0.114-1.473,1.143-1.979,2.382-2.176c0.653-0.104,1.211-0.551,1.87-0.602 c-0.082-0.193-0.036-0.431-0.016-0.648c0.038-0.411-0.038-0.587-0.511-0.497c-0.53,0.1-0.835-0.264-0.759-0.811 c-0.023,0.027-0.046,0.045-0.079,0.067c-0.527,0.038-0.559-0.364-0.646-0.724c0.198-0.338,0.426-0.624,0.881-0.614 c0.231,0.005,0.366-0.146,0.371-0.39c0.046-0.106,0.122-0.19,0.186-0.272c-0.583-0.099-1.209,0.027-1.706-0.397 c-0.071-0.053-0.122-0.128-0.191-0.182c-0.46-0.36-0.38-0.802-0.195-1.265c0.077-0.193,0.19-0.312,0.415-0.313 c0.54-0.004,0.563-0.325,0.427-0.727c-0.098-0.292-0.16-0.572-0.032-0.793c-0.217,0.223-0.328,0.496-0.182,0.884 c0.129,0.343-0.039,0.492-0.347,0.552c-0.271,0.053-0.544-0.012-0.817,0.005c-0.687,0.043-0.749,0.101-0.843,0.817 c-0.055,0.216-0.149,0.407-0.329,0.545c-0.669,0.117-1.095-0.367-1.429-0.761c-0.369-0.435-0.521-0.457-0.769,0.021 c-0.139,0.268-0.356,0.39-0.653,0.415c-1.165,0.1-1.606,0.993-2.039,1.886c-0.086,0.178-0.005,0.368,0.039,0.552 c0.204,0.86,0,1.177-0.852,1.448c-0.509,0.162-1.09,0.304-1.539,0.165c-0.604-0.189-1.282-0.289-1.798-0.728 c-0.156-0.134-0.308-0.368-0.442,0.016c-0.158,0.288,0.18,0.742-0.309,0.918c-0.56,0.202-1.095,0.552-1.724,0.189 c-0.421-0.242-0.874-0.264-1.328-0.081c-0.227,0.091-0.441,0.169-0.563-0.141c-0.914,0.18-1.741,0.604-2.583,0.968 c-1.027,0.445-1.741,1.259-2.305,2.215c-0.404,0.685-1,1.173-1.707,1.522c-0.266,0.131-0.531,0.021-0.798-0.039 c-0.207-0.045-0.388-0.028-0.284,0.291c0.334,1.03,0.132,1.52-0.868,2.157c-0.126-0.294,0.068-0.522,0.15-0.772 c0.049-0.147,0.043-0.299-0.11-0.387c-0.128-0.074-0.244-0.001-0.349,0.071c-0.291,0.197-0.434,0.505-0.595,0.799 c-0.124,0.226-0.264,0.46-0.569,0.405c-0.286-0.052-0.304-0.31-0.336-0.541c-0.302-0.06-0.605-0.119-0.874-0.171 c-0.167-0.713,0.13-1.394,0.12-2.099c0.018-0.026,0.035-0.053,0.052-0.078c0.5,0.045,1.065-0.312,1.102-0.794 c0.027-0.358,0.183-0.53,0.467-0.654c0.477-0.03,0.918-0.109,0.946-0.729c0.008-0.169,0.126-0.261,0.26-0.336 c0.29-0.045,0.635,0.171,0.866-0.179c0.031-0.003,0.063-0.006,0.093-0.009c0.349-0.122,0.583-0.336,0.795-0.663 c0.302-0.465,0.833-0.691,1.367-0.787c0.961-0.173,1.933-0.301,2.602-1.123c0.476-0.584,1.175-0.872,1.728-1.352 c0.06-0.052,0.167-0.113,0.225-0.093c0.743,0.261,1.395-0.141,2.086-0.261c0.368-0.063,0.695-0.153,0.918-0.476 c0.035-0.051,0.12-0.13,0.134-0.122c0.624,0.401,1.084-0.205,1.631-0.26c0.154-0.015,0.256,0.065,0.259,0.208 c0.011,0.708,0.352,0.309,0.582,0.165c0.172-0.108,0.309-0.272,0.51-0.456c-0.319-0.182-0.604-0.346-0.89-0.507 c-0.113-0.064-0.223-0.134-0.223-0.28c0-0.18,0.133-0.266,0.282-0.288c0.563-0.086,1.014-0.565,1.706-0.292 c0.449,0.177,1.008-0.048,1.197-0.652c0.165-0.523,0.665-0.603,1.068-0.804c0.44-0.22,0.951-0.312,1.166-0.864 c0.118-0.304,0.484-0.304,0.754-0.402c1.119-0.41,2.239-0.816,3.363-1.209c0.383-0.134,0.792-0.079,1.19-0.094 c0.249-0.009,0.519,0.025,0.697-0.207c0.139-0.181,0.318-0.366,0.517-0.192c0.251,0.22,0.697,0.269,0.715,0.718 c0.007,0.188-0.005,0.378-0.009,0.567c0.93,0.733,1.135,1.997,2.021,2.764c0.229,0.199,0.194,0.453,0.042,0.682 c-0.103,0.154-0.241,0.284-0.368,0.421c-0.178,0.189-0.493,0.314-0.388,0.649c0.042,0.132,0.12,0.211,0.212,0.27 c0.082-0.056,0.167-0.108,0.247-0.167c0.307-0.154,0.612-0.029,0.917,0.011c0.165,0.021,0.395,0.144,0.483,0.027 c0.296-0.392,0.793-0.469,1.117-0.757c0.326-0.292,0.526-0.299,0.804-0.036c0.211,0.201,0.417,0.395,0.525,0.692 c0.117,0.324,0.535,0.35,0.704,0.06c0.119-0.206,0.365-0.197,0.532-0.381c-0.074-0.279-0.501-0.392-0.422-0.768 c0.05-0.243,0.241-0.387,0.36-0.582c0.166-0.277,0.441-0.291,0.719-0.293c0.455-0.003,0.875-0.099,1.211-0.434 c0.655-0.144,1.019,0.357,1.391,0.714c0.718,0.684,1.438,1.058,2.438,0.604c0.373-0.169,0.732,0.125,1.009,0.381 c0.192,0.178,0.147,0.371-0.129,0.478c-0.359,0.14-0.709,0.261-1.099,0.097c-0.145-0.062-0.305-0.168-0.479-0.022 c0.073,0.271,0.344,0.349,0.515,0.521c-0.082,0.125-0.162,0.25-0.244,0.375c-0.316,0.082-0.664,0.215-0.549,0.598 c0.098,0.326,0.479,0.25,0.762,0.247c0.184-0.002,0.383-0.242,0.545,0.04c-0.594,0.091-1.15,0.354-1.775,0.32 c-0.283-0.015-0.539-0.045-0.77-0.207c-0.23-0.161-0.438-0.181-0.693-0.017c-0.404,0.257-0.918,0.101-1.148-0.313 c-0.062-0.109-0.092-0.239-0.166-0.336c-0.131-0.17-0.32-0.185-0.516-0.119c-0.105,0.036-0.197,0.111-0.178,0.228 c0.057,0.317,0.342,0.003,0.49,0.2c-0.393,0.437-0.297,0.79,0.254,1.038c0.223,0.101,0.328,0.258,0.328,0.543 c0,0.685,0.258,0.919,0.957,0.93c0.692,0.011,1.389-0.026,2.08,0.005c0.354,0.016,0.778,0.001,0.717,0.616 c-0.012,0.106,0.465,0.303,0.735,0.389c0.324,0.102,0.656,0.182,0.978,0.303c0.059-0.052,0.129-0.095,0.227-0.105 c0.18-0.002,0.359-0.023,0.529,0.054c0.369,0.09,0.607,0.431,0.977,0.521c0.137,0.122,0.344,0.222,0.436,0.047 c0.316-0.602,0.779-0.303,1.199-0.236c0.355,0.058,0.693,0.303,0.869-0.317c0.09-0.32,0.535-0.243,0.813-0.065 c0.168,0.108,0.291,0.252,0.478,0.053c0.631,0,1.231,0.063,1.512,0.761c0.055,0.114,0.106,0.229,0.166,0.341 c0.131,0.25,0.19,0.665,0.565,0.55c0.416-0.127,1.043,0.047,1.164-0.639V19.87c0.593,0.152,1.125,0.517,1.765,0.511 c-0.064,0.108-0.107,0.237-0.195,0.319c-0.223,0.207-0.555,0.354-0.367,0.751c0.191,0.412,0.518,0.643,0.975,0.683 c0.25,0.021,0.51,0.01,0.748,0.076c0.422,0.118,0.865,0.253,1.008,0.748c0.189,0.649,0.621,0.844,1.248,0.706 c0.41-0.134,0.799-0.181,1.178,0.128c0.183,0.149,0.443,0.113,0.673,0.066c0.735-0.153,1.346,0.063,1.769,0.673 c0.284,0.412,0.562,0.433,0.926,0.145c0.639,0.017,1.244,0.14,1.754,0.561c0.229,0.188,0.506,0.178,0.774,0.189 c0.24,0.297,0.591,0.291,0.916,0.312c0.359,0.023,0.646,0.149,0.847,0.451c0.83,0.324,1.655,0.654,2.49,0.97 c0.108,0.042,0.219,0.083,0.319,0.136c0.049-0.13,0.094-0.261,0.123-0.399c0.065-0.308,0.233-0.554,0.596-0.508 c0.359,0.046,0.515-0.098,0.615-0.435c0.094-0.306,0.354-0.43,0.69-0.412c0.31,0.016,0.486,0.126,0.588,0.429 c0.058,0.164,0.193,0.314,0.382,0.535c-0.537-0.671-0.726-1.406-1.027-2.078c-0.205-0.46-0.762-0.494-0.887-0.969 c-0.123-0.467-0.048-1.015-0.459-1.374c-0.44-0.384-0.214-0.803-0.106-1.219c0.028-0.117,0.151-0.13,0.256-0.151 c0.02,0.003,0.032,0.014,0.053,0.018c0.016-0.104-0.098-0.168-0.211-0.23v-0.655c0.646,0.533,1.256,0.965,1.772,1.486 c0.224,0.224,0.479,0.395,0.733,0.567c-1.26-2.016-2.654-3.966-4.192-5.844C78.609,8.663,71.691,3.913,63.918,1.779 c24.174,4.829,42.444,26.207,42.444,51.777C106.362,79.115,88.107,100.485,63.953,105.328z M69.077,17.503 c0.058,0.192,0.267,0.368,0.071,0.572c-0.18,0.188-0.344,0.045-0.495-0.072c-0.168-0.129-0.384-0.009-0.55-0.091 c-0.229-0.114-0.771-0.126-0.237-0.574c0.215-0.182,0.062-0.314-0.103-0.377c-0.516-0.205-0.254-0.554-0.149-0.843 c0.108-0.3,0.394-0.285,0.646-0.217c0.323,0.087,0.512,0.286,0.457,0.472C68.555,16.976,68.977,17.169,69.077,17.503z M76.93,13.591c-0.105-0.109-0.238-0.208-0.146-0.369c0.103-0.169,0.293-0.142,0.457-0.122c0.121,0.014,0.248,0.055,0.353,0.117 c0.385,0.227,0.709,0.541,1.227,0.523c0.189-0.006,0.539,0.128,0.484,0.572c-0.047,0.369,0.594,0.341,0.619,0.751l0.002,0.001 c0.44-0.042,0.709,0.244,0.983,0.518c0.138,0.103,0.299,0.188,0.448,0.212c0.355,0.058,0.558,0.235,0.699,0.56 c0.111,0.249,0.289,0.445,0.601,0.541c0.437,0.133,0.573,0.544,0.471,0.938c-0.104,0.401-0.004,0.676,0.244,0.968 c0.613,0.72,0.541,2.103-0.155,2.732c-0.244,0.219-0.386,0.556-0.73,0.665c-0.064-0.012-0.129-0.004-0.193-0.008 c-0.248,0.202-0.592,0.021-0.875,0.084c-0.016-0.013-0.031-0.018-0.047-0.03c-0.311,0.042-0.621,0.07-0.934,0.007 c0.016,0.055,0.014,0.113-0.043,0.182c-0.086,0.105-0.236,0.146-0.34,0.079c-0.572-0.379-1.375-0.342-1.789-0.999l-0.002-0.001 c-0.605-0.123-1.068-0.562-1.644-0.754c-0.039-0.003-0.078-0.005-0.117-0.008c-0.254-0.115-0.471-0.3-0.741-0.391 c-0.129-0.042-0.271-0.211-0.183-0.331c0.511-0.668-0.149-0.769-0.478-1.035c-0.041-0.001-0.08-0.004-0.121-0.008 c-0.067-0.167-0.131-0.334,0.003-0.501c-0.003-0.041-0.007-0.082-0.007-0.122c0,0,0,0-0.002,0 c-0.51,0.204-0.575-0.357-0.879-0.509c-0.574-0.506-1.133-1.011-1.057-1.894c0.02-0.226,0.014-0.421,0.24-0.525 c0.221-0.101,0.195-0.289,0.215-0.479c0.08-0.856,0.605-1.498,1.287-1.851c0.375-0.195,0.912,0.245,1.258,0.612 c0.129,0.135,0.213,0.311,0.318,0.468c0.135-0.054,0.268-0.117,0.408-0.159C77.018,13.947,77.163,13.834,76.93,13.591z M84.869,22.535c0.027-0.248,0.189-0.317,0.408-0.246c0.275,0.09,0.566,0.136,0.809,0.333c0.393,0.318,0.439,0.539-0.123,0.664 c-0.088-0.084-0.174-0.168-0.262-0.251c-0.139-0.162-0.309-0.195-0.514-0.162C84.93,22.913,84.842,22.764,84.869,22.535z"/> </g> </g> </g>
</svg>